<?xml version="1.0" encoding="UTF-8"?>
<svg id="_レイヤー_1" xmlns="http://www.w3.org/2000/svg" version="1.1" viewBox="0 0 181.42 181.42">
  <!-- Generator: Adobe Illustrator 29.8.1, SVG Export Plug-In . SVG Version: 2.1.1 Build 2)  -->
  <defs>
    <style>
      .st0 {
        fill: #fff;
      }

      .st1 {
        fill: #0866ff;
      }
    </style>
  </defs>
  <g id="Logo">
    <path id="Initiator" class="st1" d="M180.27,90.73C180.27,41.17,140.08.99,90.52.99S.78,41.17.78,90.73c0,42.09,28.98,77.4,68.06,87.1v-59.68h-18.51v-27.42h18.51v-11.82c0-30.55,13.82-44.7,43.81-44.7,5.69,0,15.5,1.11,19.51,2.23v24.86c-2.12-.22-5.8-.33-10.37-.33-14.72,0-20.4,5.57-20.4,20.07v9.7h29.31l-5.04,27.42h-24.28v61.66c44.44-5.37,78.87-43.2,78.87-89.09Z"/>
    <path id="F" class="st0" d="M125.67,118.16l5.04-27.42h-29.31v-9.7c0-14.49,5.69-20.07,20.4-20.07,4.57,0,8.25.11,10.37.33v-24.86c-4.01-1.11-13.82-2.23-19.51-2.23-29.99,0-43.81,14.16-43.81,44.7v11.82h-18.51v27.42h18.51v59.68c6.94,1.72,14.2,2.64,21.68,2.64,3.68,0,7.31-.23,10.87-.66v-61.66h24.28Z"/>
  </g>
</svg>