<?xml version="1.0" encoding="UTF-8"?>
<svg id="_レイヤー_1" xmlns="http://www.w3.org/2000/svg" version="1.1" viewBox="0 0 329.52 305.24">
  <!-- Generator: Adobe Illustrator 29.7.1, SVG Export Plug-In . SVG Version: 2.1.1 Build 8)  -->
  <defs>
    <style>
      .st0 {
        fill: #bba765;
      }

      .st1 {
        fill: #0095c2;
      }
    </style>
  </defs>
  <g>
    <path class="st0" d="M111.74,280.9h14.89v4.74h-23.09v-2.2l13.82-16.75c2.3-2.82,3.88-5.81,3.88-7.5,0-3.72-2.64-6.2-6.63-6.2s-6.74,2.26-7.02,5.58l-4.38-.96c.73-5.58,5.11-9.31,11.4-9.31,6.91,0,11.52,4.34,11.52,10.88,0,2.88-1.85,6.66-4.27,9.53l-10.11,12.18Z"/>
    <path class="st0" d="M135.74,267.31c0-10.49,2.75-19.01,13.31-19.01s13.32,8.52,13.32,19.01-2.75,19.01-13.32,19.01-13.31-8.63-13.31-19.01ZM157.48,267.31c0-7.78-1.69-14.32-8.43-14.32s-8.37,6.54-8.37,14.32,1.63,14.38,8.37,14.38,8.43-6.71,8.43-14.38Z"/>
    <path class="st0" d="M179.51,280.9h14.89v4.74h-23.09v-2.2l13.82-16.75c2.3-2.82,3.88-5.81,3.88-7.5,0-3.72-2.64-6.2-6.63-6.2s-6.74,2.26-7.02,5.58l-4.38-.96c.73-5.58,5.11-9.31,11.41-9.31,6.91,0,11.52,4.34,11.52,10.88,0,2.88-1.85,6.66-4.27,9.53l-10.11,12.18Z"/>
    <path class="st0" d="M228.84,273.74c0,7.5-5.45,12.58-12.98,12.58-6.35,0-11.01-3.55-13.32-8.35l4.1-2.26c1.46,3.38,4.61,5.98,8.99,5.98,4.78,0,8.31-3.21,8.31-7.84s-3.65-7.56-8.15-7.56c-3.03,0-6.18,1.3-8.99,3.38l-3.03-2.54,3.2-18.39h19.44v4.68h-15.45l-2.08,11.05c2.19-1.52,5.06-2.54,7.98-2.54,7.02,0,11.97,4.62,11.97,11.79Z"/>
  </g>
  <g>
    <path class="st1" d="M18.8,37.19C18.8,18.28,33.41,2.64,52.26,2.64s33.66,15.63,33.66,34.55-14.71,34.26-33.66,34.26-33.46-15.44-33.46-34.26ZM76.01,37.19c0-13.7-10.19-25.28-23.75-25.28s-23.56,11.58-23.56,25.28,10.1,24.99,23.56,24.99,23.75-11.39,23.75-24.99Z"/>
    <path class="st1" d="M144.66,70.29l-6.15-16.79h-27.6l-6.15,16.79h-10.39L119.47,3.8h10.58l25,66.49h-10.39ZM114.09,44.81h21.25l-10.58-28.95-10.67,28.95Z"/>
    <path class="st1" d="M165.62,51.18h9.81c.19,5.69,5.48,11.19,13.75,11.19s12.5-5.02,12.5-10.52c0-5.89-5.29-8.69-10.67-10.13l-8.46-2.12c-14.13-3.57-16.44-11.97-16.44-17.47,0-11.68,10.29-19.49,22.02-19.49s21.25,7.53,21.25,19.69h-9.81c0-6.27-4.9-10.61-11.73-10.61-6.25,0-11.83,4.15-11.83,10.23,0,2.12.67,6.47,9.04,8.68l8.37,2.32c11.16,2.99,18.17,8.68,18.17,18.43,0,11.1-9.04,20.07-22.41,20.07-14.14,0-23.56-9.55-23.56-20.26Z"/>
    <path class="st1" d="M230.53,70.29V3.8h9.9v66.49h-9.9Z"/>
    <path class="st1" d="M259.95,51.18h9.81c.19,5.69,5.48,11.19,13.75,11.19s12.5-5.02,12.5-10.52c0-5.89-5.29-8.69-10.67-10.13l-8.46-2.12c-14.14-3.57-16.44-11.97-16.44-17.47,0-11.68,10.29-19.49,22.02-19.49s21.25,7.53,21.25,19.69h-9.81c0-6.27-4.9-10.61-11.73-10.61-6.25,0-11.83,4.15-11.83,10.23,0,2.12.67,6.47,9.04,8.68l8.37,2.32c11.15,2.99,18.17,8.68,18.17,18.43,0,11.1-9.04,20.07-22.41,20.07-14.14,0-23.56-9.55-23.56-20.26Z"/>
  </g>
  <g>
    <path class="st1" d="M65.8,130.26h5.06c.17,3.44,3.43,6.95,8.61,6.95s7.82-3.28,7.82-6.72c0-3.78-3.43-5.48-6.7-6.33l-5.01-1.24c-8.22-1.98-9.51-6.83-9.51-10,0-6.72,6.02-11.24,12.77-11.24s12.27,4.35,12.27,11.29h-5.06c0-3.9-3.21-6.55-7.37-6.55-3.88,0-7.48,2.6-7.48,6.44,0,1.36.45,4.07,5.63,5.42l5.06,1.36c6.58,1.75,10.52,5.14,10.52,10.67,0,6.04-4.9,11.63-12.94,11.63s-13.62-5.65-13.67-11.69Z"/>
    <path class="st1" d="M127.65,102.36v4.74h-11.82v34.17h-5.12v-34.17h-11.82v-4.74h28.76Z"/>
    <path class="st1" d="M157.3,141.27l-10.19-14.68h-5.01v14.68h-5.12v-38.91h14.58c8.44,0,11.71,6.1,11.71,12.14,0,5.65-3.21,11.63-10.13,12.14l10.3,14.63h-6.13ZM142.11,107.1v14.8h8.1c5.68,0,7.93-2.99,7.93-7.4s-2.53-7.4-6.47-7.4h-9.57Z"/>
    <path class="st1" d="M179.65,136.52h18.35v4.74h-23.41v-38.91h22.85v4.74h-17.78v12.65h15.53v4.8h-15.53v11.97Z"/>
    <path class="st1" d="M214.14,136.52h18.35v4.74h-23.41v-38.91h22.85v4.74h-17.78v12.65h15.53v4.8h-15.53v11.97Z"/>
    <path class="st1" d="M268.05,102.36v4.74h-11.82v34.17h-5.12v-34.17h-11.82v-4.74h28.76Z"/>
    <path class="st1" d="M69.21,167.34h5.12v38.91h-5.12v-17h-19.02v17h-5.12v-38.91h5.12v17.22h19.02v-17.22Z"/>
    <path class="st1" d="M112.2,206.26l-3.77-10h-16.66l-3.77,10h-5.35l14.74-38.91h5.4l14.74,38.91h-5.35ZM93.46,191.74h13.28l-6.64-17.68-6.64,17.68Z"/>
    <path class="st1" d="M146.19,206.26l-10.19-14.68h-5.01v14.68h-5.12v-38.91h14.58c8.44,0,11.71,6.1,11.71,12.14,0,5.65-3.21,11.63-10.13,12.14l10.3,14.63h-6.13ZM131,172.09v14.8h8.1c5.68,0,7.93-2.99,7.93-7.4s-2.53-7.4-6.47-7.4h-9.57Z"/>
    <path class="st1" d="M182.54,167.34h5.23l-11.65,38.91h-4.9l-11.71-38.91h5.23l8.89,30.33,8.89-30.33Z"/>
    <path class="st1" d="M202.58,201.51h18.35v4.74h-23.41v-38.91h22.85v4.74h-17.78v12.65h15.53v4.8h-15.53v11.97Z"/>
    <path class="st1" d="M229.48,195.24h5.06c.17,3.44,3.43,6.95,8.61,6.95s7.82-3.28,7.82-6.72c0-3.78-3.43-5.48-6.7-6.33l-5.01-1.24c-8.22-1.98-9.51-6.83-9.51-10,0-6.72,6.02-11.24,12.77-11.24s12.27,4.35,12.27,11.29h-5.06c0-3.9-3.21-6.55-7.37-6.55-3.88,0-7.48,2.6-7.48,6.44,0,1.36.45,4.07,5.63,5.42l5.07,1.36c6.58,1.75,10.52,5.14,10.52,10.67,0,6.04-4.9,11.63-12.94,11.63s-13.62-5.65-13.67-11.69Z"/>
    <path class="st1" d="M291.32,167.34v4.74h-11.82v34.17h-5.12v-34.17h-11.82v-4.74h28.76Z"/>
  </g>
</svg>