<?xml version="1.0" encoding="UTF-8"?>
<svg id="_レイヤー_1" xmlns="http://www.w3.org/2000/svg" version="1.1" viewBox="0 0 198.52 185.89">
  <!-- Generator: Adobe Illustrator 29.7.1, SVG Export Plug-In . SVG Version: 2.1.1 Build 8)  -->
  <defs>
    <style>
      .st0 {
        fill: #9da6a2;
      }

      .st1 {
        fill: #5c6562;
      }

      .st2 {
        fill: #fff;
      }

      .st3 {
        fill: #6b7672;
      }

      .st4 {
        fill: #bba765;
      }
    </style>
  </defs>
  <g id="layer1">
    <path class="st4" d="M187.47,175.89h-13.57s-17.88-27.4-44.63-34.19c19.75-2.21,38.5,13.02,49.15,23.87-.64-2.65-1.43-5.58-2.34-8.47-.72-2.32-1.53-4.61-2.32-6.75-.82-2.13-1.6-4.11-2.35-5.77-.71-1.68-1.37-3.05-1.83-4.01-.04-.09-.08-.17-.12-.25-.34-.71-.05-1.56.64-1.92.71-.37,1.59-.1,1.97.61.04.07.08.15.12.23.51.96,1.26,2.33,2.07,4.02.84,1.67,1.74,3.66,2.68,5.81.92,2.15,1.85,4.47,2.71,6.82,1.14,3.13,2.15,6.29,2.97,9.15,0-.34-.02-.66-.03-1.01-.09-1.37-.18-2.82-.27-4.31-.09-1.5-.28-3.03-.42-4.6-.13-1.57-.38-3.15-.57-4.73-.43-3.17-.99-6.31-1.61-9.24-.63-2.92-1.32-5.63-2.01-7.91-.69-2.28-1.34-4.16-1.85-5.43-.08-.19-.18-.44-.29-.7-.3-.71,0-1.53.69-1.87.73-.37,1.63-.06,1.97.69.13.28.26.55.34.75.59,1.33,1.33,3.26,2.14,5.6.79,2.34,1.61,5.1,2.36,8.09.75,2.99,1.43,6.2,1.99,9.43.25,1.62.57,3.23.76,4.84.2,1.6.44,3.17.59,4.7s.3,3.01.44,4.41c.1,1.41.19,2.73.27,3.96.2,2.45.2,4.5.27,5.94.05,1.43.08,2.25.08,2.25h0ZM124.42,95.66c2.32-.29,4.66-1.2,5.22-2.3.57-1.08-.84-1.92-3.16-1.64-2.32.28-4.66,1.59-5.23,2.67-.57,1.09.86,1.54,3.17,1.26h0ZM126.61,97.48c-.57,1.09.84,1.84,3.13,1.92,2.28.07,4.57-.57,5.14-1.66.57-1.08-.8-2.2-3.08-2.27-2.29-.08-4.63.93-5.19,2.01ZM139.17,96.11c2.22.41,4.43.03,5-1.05s-.73-2.47-2.95-2.88c-2.22-.41-4.52.31-5.09,1.39-.57,1.09.81,2.13,3.03,2.54h0ZM141.19,98.91c-.57,1.09.75,2.4,2.87,3.14,2.12.73,4.24.61,4.8-.48.57-1.08-.62-2.72-2.75-3.45-2.12-.74-4.36-.29-4.92.8h0ZM152.83,100.83c1.99,1.04,3.97,1.15,4.54.06.57-1.08-.5-2.96-2.48-3.99-1.98-1.04-4.12-.84-4.69.24-.57,1.09.65,2.65,2.64,3.69h0ZM154.49,104.5c-.57,1.09.54,2.89,2.34,4.22,1.82,1.32,3.64,1.65,4.21.56.56-1.08-.34-3.18-2.15-4.5s-3.84-1.37-4.4-.28h0ZM168.32,110.39c.57-1.08-.15-3.38-1.76-4.97-1.61-1.59-3.48-1.86-4.05-.78-.57,1.09.39,3.12,1.99,4.71,1.61,1.59,3.25,2.13,3.82,1.04h0ZM165.61,113.8c-.57,1.09.21,3.33,1.57,5.17,1.37,1.83,2.8,2.57,3.37,1.48.57-1.08.06-3.58-1.31-5.41-1.36-1.84-3.07-2.32-3.63-1.24h0ZM176.13,123.09c.56-1.08.3-3.75-.79-5.82s-2.58-2.75-3.15-1.66c-.57,1.09,0,3.53,1.09,5.6,1.09,2.06,2.28,2.97,2.85,1.89h0ZM114.83,116.7c2.26-.6,4.45-1.82,4.86-2.98.42-1.15-1.09-1.79-3.35-1.2-2.26.59-4.41,2.2-4.83,3.35-.42,1.15,1.06,1.42,3.32.83h0ZM122.12,115.51c-2.28.23-4.46,1.54-4.87,2.69-.42,1.15,1.08,1.71,3.36,1.48,2.27-.24,4.46-1.18,4.87-2.34.42-1.15-1.08-2.08-3.36-1.84h0ZM134.32,113.45c.42-1.15-1.05-2.35-3.31-2.46-2.25-.11-4.44.91-4.86,2.06-.42,1.15,1.09,2,3.35,2.11,2.26.11,4.4-.56,4.82-1.72h0ZM131.88,117.67c-.42,1.16,1.06,2.28,3.26,2.72s4.28.04,4.69-1.12c.42-1.15-.98-2.61-3.18-3.05-2.2-.45-4.35.3-4.77,1.45h0ZM148.17,117.46c.42-1.15-.89-2.86-2.99-3.62s-4.2-.28-4.62.87c-.42,1.16,1,2.54,3.11,3.31,2.11.76,4.09.6,4.5-.55h0ZM152.95,125.29c.41-1.15-.76-3.1-2.74-4.17-1.97-1.07-3.99-.84-4.4.31-.42,1.15.92,2.8,2.89,3.87,1.98,1.07,3.83,1.15,4.25,0h0ZM160.3,125.41c.41-1.15-.61-3.33-2.41-4.69-1.81-1.36-3.7-1.38-4.11-.23-.42,1.15.8,3.04,2.6,4.4,1.81,1.36,3.51,1.67,3.92.52h0ZM158.07,129.15c-.42,1.15.65,3.27,2.25,4.91,1.6,1.63,3.11,2.17,3.53,1.01.42-1.15-.42-3.55-2.02-5.19s-3.35-1.89-3.76-.74h0ZM164.84,130.06c-.42,1.16.47,3.49,1.83,5.4,1.36,1.9,2.65,2.64,3.08,1.49.41-1.15-.21-3.76-1.57-5.66-1.36-1.9-2.92-2.37-3.34-1.22h0ZM112.81,132.61c-1.92,1.33-3.39,3.58-3.39,4.8s1.48.97,3.4-.36c1.91-1.33,3.56-3.23,3.55-4.46,0-1.22-1.64-1.31-3.56.02h0ZM119.26,133.44c-2.06,1-3.66,2.98-3.66,4.2s1.6,1.24,3.67.24c2.05-1,3.78-2.63,3.78-3.86s-1.73-1.58-3.79-.58h0ZM130.02,127.32c0-1.22-1.79-1.85-3.95-1.18s-3.86,2.38-3.86,3.6,1.71,1.51,3.87.84c2.16-.67,3.94-2.03,3.94-3.26h0ZM133.17,133.56c2.22-.34,4.03-1.43,4.03-2.66s-1.82-2.12-4.04-1.78c-2.22.33-3.99,1.78-3.98,3,0,1.23,1.78,1.78,4,1.44h-.01ZM136.32,126.37c0,1.23,1.81,2.04,4.05,2.04s4.05-.83,4.04-2.06c0-1.22-1.82-2.39-4.05-2.38-2.24,0-4.04,1.17-4.04,2.4h0ZM147.59,133.52c2.22.32,3.99-.23,3.99-1.46s-1.78-2.66-4-2.98c-2.22-.33-4.04.57-4.03,1.8,0,1.23,1.82,2.31,4.04,2.64h0Z"/>
  </g>
  <g>
    <circle class="st3" cx="52.03" cy="133.64" r="41.19"/>
    <circle class="st2" cx="52.03" cy="133.64" r="16.47"/>
    <circle class="st0" cx="52.03" cy="133.64" r="1.98"/>
  </g>
  <g>
    <path class="st1" d="M10.96,37.33c-1.66,0-2.51-1.26-2.51-2.51s.86-2.46,2.46-2.46h.06l12.85.11c-.74-1.43-1.66-2.8-2.63-4.11-.34-.46-.51-.91-.51-1.31,0-1.2,1.26-2,2.57-2,.51,0,1.08.11,1.54.46.34.23,4.4,4.74,4.4,6.68v.34l3.6.06,3.08-.06c1.03-2,2.11-4.28,2.68-6.11.4-1.14,1.31-1.6,2.28-1.6,1.43,0,3.03,1.08,3.03,2.51,0,.86-1.54,3.43-2.63,5.14l13.08-.11h.06c1.66,0,2.51,1.2,2.51,2.46s-.86,2.51-2.57,2.51c0,0-43.35,0-43.35,0ZM14.95,24.08c-1.66,0-2.51-1.26-2.51-2.51s.86-2.46,2.51-2.46h14.84l-.06-3.65c0-1.66,1.43-2.46,2.8-2.46,1.48,0,2.91.86,2.91,2.46l-.06,3.65h14.96c1.71,0,2.57,1.26,2.57,2.46s-.86,2.51-2.57,2.51H14.95ZM42.13,62.85c-2.8.06-5.77.11-8.62.11-3.37,0-6.68-.06-9.76-.17-4-.17-6.11-2.34-6.28-5.25-.11-1.88-.17-3.71-.17-5.6s.06-3.77.17-5.71c.11-2.4,1.77-4.91,6.17-5.02,2.51-.06,5.31-.06,8.16-.06,3.48,0,7.14,0,10.62.11,3.37.11,5.77,2.4,5.88,4.62.11,1.94.17,3.88.17,5.82s-.06,3.83-.17,5.82c-.12,2.74-2.51,5.2-6.17,5.31,0,0,0,.02,0,.02ZM43.16,49.89c0-2.8,0-4.28-2.8-4.34-2.97-.06-6.34-.11-9.54-.11-1.94,0-3.88,0-5.6.06-2.8.11-2.8,1.71-2.8,4.34l20.73.06h0ZM22.43,53.83c0,.8,0,1.54.06,2.34.06,2.34,1.08,2.4,11.42,2.4,2.23,0,4.4-.06,6.51-.11,2.74-.11,2.74-1.26,2.74-4.57l-20.73-.06Z"/>
    <path class="st1" d="M185.79,38.02l-17.3-.23c5.65,7.02,12.62,11.99,19.41,15.53,1.14.63,1.66,1.54,1.66,2.46,0,1.6-1.48,3.2-3.31,3.2-2.85,0-12.96-8.28-19.58-16.5l.11,19.13c0,1.54-1.43,2.28-2.85,2.28s-2.85-.74-2.85-2.28l.17-18.61c-4.74,6.17-10.62,11.59-17.81,15.93-.63.4-1.26.57-1.88.57-1.66,0-2.97-1.37-2.97-2.85,0-.91.51-1.88,1.77-2.51,7.37-3.88,13.47-9.19,18.78-16.33l-16.79.23h-.06c-1.66,0-2.45-1.26-2.45-2.57s.86-2.63,2.51-2.63l18.96.11-.23-16.73v-.06c0-1.6,1.43-2.4,2.85-2.4s2.91.8,2.91,2.4v.06l-.23,16.73,19.18-.11c1.54,0,2.34,1.31,2.34,2.63s-.74,2.57-2.28,2.57h-.06v-.02h0ZM151.93,29.45c-1.37-2.45-4-4.97-5.25-5.82-.8-.51-1.08-1.2-1.08-1.88,0-1.43,1.31-2.8,2.97-2.8,2.74,0,7.77,6.22,8.28,7.08.34.57.46,1.14.46,1.71,0,1.77-1.54,3.2-3.08,3.2-.86,0-1.71-.46-2.28-1.48h-.02ZM173.23,30.99c-1.49,0-2.74-1.2-2.74-2.57,0-.69.28-1.37.97-2,2.05-1.94,4.74-5.31,5.94-7.31.51-.91,1.31-1.26,2.11-1.26,1.6,0,3.26,1.48,3.26,3.2,0,.57-.23,1.14-.63,1.71-5.65,7.31-7.71,8.22-8.91,8.22h0Z"/>
  </g>
  <path class="st1" d="M92.28,37.18c-.62-2.09-.81-3.37-1.38-9.21-.19-2.28-.38-3.42-.85-5.03,2.9.05,4.75.19,6.03.52.71.19,1.04.52,1.04,1.05,0,.19-.05.43-.14.81-.33,1.14-.47,2-.47,3.23,0,2.33.47,6.13,1,7.79.28.9.57,1.23,1.09,1.23,1.14,0,5.32-2.18,7.6-3.94.62-.47.71-.52.95-.52.43,0,.85.33,1.57,1.23,1.19,1.61,2.14,3.37,2.14,4.04,0,.52-.33.85-1.14,1.09-2.94.81-7.79,2.71-11.06,4.27-5.79,2.85-8.4,5.46-8.4,8.4s2.42,4.08,8.55,4.08c3.56,0,6.79-.33,11.16-1.04.19-.05.52-.09.62-.09.38,0,.62.19.81.57.14.47.48,3.37.48,4.51,0,.66-.19.9-.81,1.09-1.04.24-6.79.57-10.4.57-6.08,0-10.12-.81-12.63-2.52-2.14-1.47-3.28-3.8-3.28-6.65,0-2.18.62-4.13,1.9-6.03,1.66-2.47,3.47-4.04,7.45-6.41-1-.9-1.38-1.57-1.8-3.04Z"/>
</svg>