<?xml version="1.0" encoding="UTF-8"?>
<svg id="_レイヤー_1" xmlns="http://www.w3.org/2000/svg" version="1.1" viewBox="0 0 198.52 185.89">
  <!-- Generator: Adobe Illustrator 29.7.1, SVG Export Plug-In . SVG Version: 2.1.1 Build 8)  -->
  <defs>
    <style>
      .st0 {
        fill: #9da6a2;
      }

      .st1 {
        fill: #fff;
      }

      .st2 {
        fill: #6b7672;
      }

      .st3 {
        fill: #4e5347;
      }

      .st4 {
        fill: #bba765;
      }
    </style>
  </defs>
  <g id="layer1">
    <path class="st4" d="M187.47,174.47h-13.57s-17.88-27.4-44.63-34.19c19.75-2.21,38.5,13.02,49.15,23.87-.64-2.65-1.43-5.58-2.34-8.47-.72-2.32-1.53-4.61-2.32-6.75-.82-2.13-1.6-4.11-2.35-5.77-.71-1.68-1.37-3.05-1.83-4.01-.04-.09-.08-.17-.12-.25-.34-.71-.05-1.56.64-1.92.71-.37,1.59-.1,1.97.61.04.07.08.15.12.23.51.96,1.26,2.33,2.07,4.02.84,1.67,1.74,3.66,2.68,5.81.92,2.15,1.85,4.47,2.71,6.82,1.14,3.13,2.15,6.29,2.97,9.15,0-.34-.02-.66-.03-1.01-.09-1.37-.18-2.82-.27-4.31-.09-1.5-.28-3.03-.42-4.6-.13-1.57-.38-3.15-.57-4.73-.43-3.17-.99-6.31-1.61-9.24-.63-2.92-1.32-5.63-2.01-7.91-.69-2.28-1.34-4.16-1.85-5.43-.08-.19-.18-.44-.29-.7-.3-.71,0-1.53.69-1.87.73-.37,1.63-.06,1.97.69.13.28.26.55.34.75.59,1.33,1.33,3.26,2.14,5.6.79,2.34,1.61,5.1,2.36,8.09.75,2.99,1.43,6.2,1.99,9.43.25,1.62.57,3.23.76,4.84.2,1.6.44,3.17.59,4.7s.3,3.01.44,4.41c.1,1.41.19,2.73.27,3.96.2,2.45.2,4.5.27,5.94.05,1.43.08,2.25.08,2.25h0ZM124.42,94.24c2.32-.29,4.66-1.2,5.22-2.3.57-1.08-.84-1.92-3.16-1.64-2.32.28-4.66,1.59-5.23,2.67-.57,1.09.86,1.54,3.17,1.26h0ZM126.61,96.06c-.57,1.09.84,1.84,3.13,1.92,2.28.07,4.57-.57,5.14-1.66.57-1.08-.8-2.2-3.08-2.27-2.29-.08-4.63.93-5.19,2.01ZM139.17,94.69c2.22.41,4.43.03,5-1.05s-.73-2.47-2.95-2.88c-2.22-.41-4.52.31-5.09,1.39-.57,1.09.81,2.13,3.03,2.54h0ZM141.19,97.49c-.57,1.09.75,2.4,2.87,3.14,2.12.73,4.24.61,4.8-.48.57-1.08-.62-2.72-2.75-3.45-2.12-.74-4.36-.29-4.92.8h0ZM152.83,99.41c1.99,1.04,3.97,1.15,4.54.06.57-1.08-.5-2.96-2.48-3.99-1.98-1.04-4.12-.84-4.69.24-.57,1.09.65,2.65,2.64,3.69h0ZM154.49,103.08c-.57,1.09.54,2.89,2.34,4.22,1.82,1.32,3.64,1.65,4.21.56.56-1.08-.34-3.18-2.15-4.5s-3.84-1.37-4.4-.28h0ZM168.32,108.97c.57-1.08-.15-3.38-1.76-4.97-1.61-1.59-3.48-1.86-4.05-.78-.57,1.09.39,3.12,1.99,4.71,1.61,1.59,3.25,2.13,3.82,1.04h0ZM165.61,112.38c-.57,1.09.21,3.33,1.57,5.17,1.37,1.83,2.8,2.57,3.37,1.48.57-1.08.06-3.58-1.31-5.41-1.36-1.84-3.07-2.32-3.63-1.24h0ZM176.13,121.67c.56-1.08.3-3.75-.79-5.82s-2.58-2.75-3.15-1.66c-.57,1.09,0,3.53,1.09,5.6,1.09,2.06,2.28,2.97,2.85,1.89h0ZM114.83,115.28c2.26-.6,4.45-1.82,4.86-2.98.42-1.15-1.09-1.79-3.35-1.2-2.26.59-4.41,2.2-4.83,3.35-.42,1.15,1.06,1.42,3.32.83h0ZM122.12,114.09c-2.28.23-4.46,1.54-4.87,2.69-.42,1.15,1.08,1.71,3.36,1.48,2.27-.24,4.46-1.18,4.87-2.34.42-1.15-1.08-2.08-3.36-1.84h0ZM134.32,112.03c.42-1.15-1.05-2.35-3.31-2.46-2.25-.11-4.44.91-4.86,2.06-.42,1.15,1.09,2,3.35,2.11,2.26.11,4.4-.56,4.82-1.72h0ZM131.88,116.25c-.42,1.16,1.06,2.28,3.26,2.72s4.28.04,4.69-1.12c.42-1.15-.98-2.61-3.18-3.05-2.2-.45-4.35.3-4.77,1.45h0ZM148.17,116.04c.42-1.15-.89-2.86-2.99-3.62s-4.2-.28-4.62.87c-.42,1.16,1,2.54,3.11,3.31,2.11.76,4.09.6,4.5-.55h0ZM152.95,123.87c.41-1.15-.76-3.1-2.74-4.17-1.97-1.07-3.99-.84-4.4.31-.42,1.15.92,2.8,2.89,3.87,1.98,1.07,3.83,1.15,4.25,0h0ZM160.3,123.99c.41-1.15-.61-3.33-2.41-4.69-1.81-1.36-3.7-1.38-4.11-.23-.42,1.15.8,3.04,2.6,4.4,1.81,1.36,3.51,1.67,3.92.52h0ZM158.07,127.73c-.42,1.15.65,3.27,2.25,4.91,1.6,1.63,3.11,2.17,3.53,1.01.42-1.15-.42-3.55-2.02-5.19s-3.35-1.89-3.76-.74h0ZM164.84,128.64c-.42,1.16.47,3.49,1.83,5.4,1.36,1.9,2.65,2.64,3.08,1.49.41-1.15-.21-3.76-1.57-5.66-1.36-1.9-2.92-2.37-3.34-1.22h0ZM112.81,131.19c-1.92,1.33-3.39,3.58-3.39,4.8s1.48.97,3.4-.36c1.91-1.33,3.56-3.23,3.55-4.46,0-1.22-1.64-1.31-3.56.02h0ZM119.26,132.02c-2.06,1-3.66,2.98-3.66,4.2s1.6,1.24,3.67.24c2.05-1,3.78-2.63,3.78-3.86s-1.73-1.58-3.79-.58h0ZM130.02,125.9c0-1.22-1.79-1.85-3.95-1.18s-3.86,2.38-3.86,3.6,1.71,1.51,3.87.84c2.16-.67,3.94-2.03,3.94-3.26h0ZM133.17,132.14c2.22-.34,4.03-1.43,4.03-2.66s-1.82-2.12-4.04-1.78c-2.22.33-3.99,1.78-3.98,3,0,1.23,1.78,1.78,4,1.44h-.01ZM136.32,124.95c0,1.23,1.81,2.04,4.05,2.04s4.05-.83,4.04-2.06c0-1.22-1.82-2.39-4.05-2.38-2.24,0-4.04,1.17-4.04,2.4h0ZM147.59,132.1c2.22.32,3.99-.23,3.99-1.46s-1.78-2.66-4-2.98c-2.22-.33-4.04.57-4.03,1.8,0,1.23,1.82,2.31,4.04,2.64h0Z"/>
  </g>
  <g>
    <circle class="st2" cx="52.03" cy="132.22" r="41.19"/>
    <circle class="st1" cx="52.03" cy="132.22" r="16.47"/>
    <circle class="st0" cx="52.03" cy="132.22" r="1.98"/>
  </g>
  <g>
    <path class="st3" d="M11.02,37.88c-.91,0-1.37-.69-1.37-1.37,0-.63.46-1.31,1.37-1.31l15.32.06-.06-.17c-1.32-2.63-2.92-4.86-4.74-6.86-.17-.23-.29-.46-.29-.63,0-.69.69-1.32,1.49-1.32,1.89,0,6.46,6.86,6.46,7.95,0,.4-.17.74-.4,1.03h7.95c1.6-2.57,3.2-6.06,3.94-8.18.29-.74.86-1.09,1.43-1.09.86,0,1.71.69,1.71,1.54,0,1.32-3.72,7.32-4,7.72l15.38-.06c.91,0,1.37.69,1.37,1.31,0,.69-.46,1.37-1.37,1.37H11.02ZM14.79,24.39c-.91,0-1.37-.69-1.37-1.37,0-.63.46-1.32,1.37-1.32h16.81l-.11-5.26c0-.91.8-1.37,1.66-1.37.8,0,1.6.46,1.6,1.37l-.06,5.26h16.69c.91,0,1.37.69,1.37,1.32,0,.69-.46,1.37-1.37,1.37H14.79ZM42.06,64.06c-3.09.06-5.83.11-8.46.11-3.03,0-5.95-.06-9.09-.17-3.89-.11-5.66-2.23-5.83-5.14-.06-1.77-.11-3.54-.11-5.32s.06-3.6.11-5.43c.11-2.52,1.89-4.86,5.72-4.92,2.34-.06,4.46-.06,6.63-.06,3.43,0,6.86.06,11.32.11,3.26.06,5.43,2.17,5.55,4.52.11,1.83.11,3.72.11,5.54s0,3.66-.11,5.55c-.17,2.86-2.34,5.09-5.83,5.2ZM45.03,52.17c0-4.23-.11-6.4-3.89-6.52-3.26-.06-6.52-.11-9.83-.11-2.06,0-4.06,0-6.12.06-2.4.06-3.66,1.31-3.72,3.26-.06,1.09-.06,2.17-.06,3.26l23.61.06ZM21.42,54.51c0,1.2,0,2.46.06,3.66.11,3.49,2,3.49,12.18,3.49,2.52,0,5.03-.06,7.6-.11,3.72-.11,3.77-2.12,3.77-7.03h-23.61Z"/>
    <path class="st3" d="M88.37,24.67c-.4-.51-.57-.97-.57-1.37,0-.91.86-1.54,1.77-1.54.57,0,1.2.29,1.6.86,2.63,3.77,5.6,9.78,7.32,14.86.46-.29,11.26-7.49,12.92-7.49.97,0,1.66.69,1.66,1.54,0,.63-.46,1.37-1.49,1.94-7.55,3.89-21.72,11.32-21.72,18.87,0,6.57,9.72,6.57,10.8,6.57,3.77,0,7.72-.74,10.12-1.71.4-.17.8-.23,1.09-.23,1.09,0,1.66.74,1.66,1.6,0,.8-.51,1.66-1.71,2.06-2.86.86-6.8,1.49-10.69,1.49-11.72,0-14.35-5.66-14.35-9.55,0-5.32,4.86-10.12,9.09-13.21-1.54-4.8-4.69-11.26-7.49-14.69Z"/>
    <path class="st3" d="M163.15,40.56c-7.77,11.26-19.66,19.61-21.49,19.61-.97,0-1.72-.74-1.72-1.54,0-.46.34-1.03,1.03-1.37,7.89-4.17,15.32-11.38,20.69-19.09l-18.98.11c-.91,0-1.37-.69-1.37-1.37,0-.74.46-1.43,1.37-1.43l20.47.11-.11-18.29c0-.86.74-1.26,1.54-1.26s1.6.46,1.6,1.31l-.23,18.24,20.64-.11c.91,0,1.37.74,1.37,1.43s-.46,1.37-1.31,1.37l-19.38-.11c5.72,7.6,13.55,14.41,21.04,18.29.69.34,1.03.91,1.03,1.43,0,.91-.8,1.77-1.83,1.77-1.89,0-13.38-8.23-21.49-19.27l.11,23.04c0,.86-.8,1.26-1.54,1.26-.8,0-1.6-.4-1.6-1.26l.17-22.87ZM154.17,30.9c-1.71-3.03-5.03-5.89-6.63-6.97-.4-.29-.57-.63-.57-.97,0-.74.8-1.49,1.66-1.49,1.49,0,8.52,6.35,8.52,8.52,0,.97-.8,1.72-1.66,1.72-.46,0-.97-.23-1.31-.8ZM171.84,30.39c0-.29.11-.69.46-.97,2.52-2.34,5.54-6,6.97-8.46.29-.46.69-.69,1.14-.69.86,0,1.77.8,1.77,1.77,0,.29-.11.63-.34.91-1.37,1.89-6.63,8.8-8.52,8.8-.8,0-1.49-.63-1.49-1.37Z"/>
  </g>
</svg>