<?xml version="1.0" encoding="UTF-8"?>
<svg id="_レイヤー_1" xmlns="http://www.w3.org/2000/svg" version="1.1" viewBox="0 0 329.52 235.89">
  <!-- Generator: Adobe Illustrator 29.6.1, SVG Export Plug-In . SVG Version: 2.1.1 Build 9)  -->
  <defs>
    <style>
      .st0 {
        fill: #008eb8;
      }
    </style>
  </defs>
  <g>
    <path class="st0" d="M3.5,51.29v-.2C3.5,31.43,18.67,14.96,40.13,14.96s36.43,16.27,36.43,35.94v.2c0,19.66-15.17,36.13-36.63,36.13S3.5,70.96,3.5,51.29ZM63.69,51.29v-.2c0-13.58-9.88-24.76-23.76-24.76s-23.56,10.98-23.56,24.56v.2c0,13.58,9.88,24.76,23.76,24.76s23.56-10.98,23.56-24.56Z"/>
    <path class="st0" d="M114.2,15.66h11.38l30.75,70.37h-12.98l-7.09-16.87h-33.04l-7.19,16.87h-12.58L114.2,15.66ZM131.77,58.28l-12.08-27.95-11.98,27.95h24.06Z"/>
    <path class="st0" d="M163.61,75.85l7.39-8.78c6.69,5.79,13.48,9.08,22.06,9.08,7.59,0,12.38-3.59,12.38-8.78v-.2c0-4.99-2.79-7.69-15.77-10.68-14.87-3.59-23.26-7.99-23.26-20.86v-.2c0-11.98,9.98-20.26,23.86-20.26,10.18,0,18.27,3.09,25.35,8.78l-6.59,9.28c-6.29-4.69-12.58-7.19-18.97-7.19-7.19,0-11.38,3.69-11.38,8.29v.2c0,5.39,3.19,7.79,16.67,10.98,14.77,3.59,22.36,8.88,22.36,20.46v.2c0,13.08-10.28,20.86-24.96,20.86-10.68,0-20.76-3.69-29.15-11.18h0Z"/>
    <path class="st0" d="M236.88,16.16h12.28v69.87h-12.28V16.16Z"/>
    <path class="st0" d="M267.13,75.85l7.39-8.78c6.69,5.79,13.48,9.08,22.06,9.08,7.59,0,12.38-3.59,12.38-8.78v-.2c0-4.99-2.8-7.69-15.77-10.68-14.87-3.59-23.26-7.99-23.26-20.86v-.2c0-11.98,9.98-20.26,23.86-20.26,10.18,0,18.27,3.09,25.36,8.78l-6.59,9.28c-6.29-4.69-12.58-7.19-18.97-7.19-7.19,0-11.38,3.69-11.38,8.29v.2c0,5.39,3.19,7.79,16.67,10.98,14.77,3.59,22.36,8.88,22.36,20.46v.2c0,13.08-10.28,20.86-24.95,20.86-10.68,0-20.76-3.69-29.15-11.18h-.01Z"/>
  </g>
  <g>
    <path class="st0" d="M68.28,154.55l2.33-2.76c3.47,3.14,6.8,4.71,11.42,4.71s7.42-2.38,7.42-5.66v-.1c0-3.09-1.66-4.85-8.66-6.33-7.66-1.66-11.18-4.14-11.18-9.61v-.1c0-5.23,4.61-9.09,10.94-9.09,4.85,0,8.32,1.38,11.7,4.09l-2.19,2.9c-3.09-2.52-6.18-3.62-9.61-3.62-4.33,0-7.09,2.38-7.09,5.37v.1c0,3.14,1.71,4.9,9.04,6.47,7.42,1.62,10.85,4.33,10.85,9.42v.09c0,5.71-4.76,9.42-11.37,9.42-5.28,0-9.61-1.76-13.6-5.33v.03Z"/>
    <path class="st0" d="M111.94,129.58h-11.23v-3.47h26.21v3.47h-11.23v29.82h-3.76v-29.82h0Z"/>
    <path class="st0" d="M136.15,126.1h14.32c4.09,0,7.37,1.24,9.47,3.33,1.62,1.62,2.57,3.95,2.57,6.57v.09c0,5.52-3.81,8.75-9.04,9.7l10.23,13.6h-4.61l-9.66-12.94h-9.51v12.94h-3.76v-33.3h-.01ZM150.14,143.08c4.99,0,8.56-2.57,8.56-6.85v-.09c0-4.09-3.14-6.56-8.52-6.56h-10.27v13.51h10.23Z"/>
    <path class="st0" d="M172.91,126.1h24.07v3.43h-20.31v11.37h18.17v3.42h-18.17v11.65h20.55v3.43h-24.31v-33.3h0Z"/>
    <path class="st0" d="M207.16,126.1h24.07v3.43h-20.31v11.37h18.17v3.42h-18.17v11.65h20.55v3.43h-24.31v-33.3h0Z"/>
    <path class="st0" d="M250.06,129.58h-11.23v-3.47h26.21v3.47h-11.23v29.82h-3.76v-29.82h.01Z"/>
    <path class="st0" d="M45.76,191.77h3.76v14.79h19.22v-14.79h3.76v33.3h-3.76v-14.98h-19.22v14.98h-3.76v-33.3Z"/>
    <path class="st0" d="M96.61,191.54h3.52l15.17,33.53h-4.04l-3.9-8.8h-18.12l-3.95,8.8h-3.85l15.17-33.53h0ZM105.88,212.89l-7.56-16.98-7.61,16.98h15.17Z"/>
    <path class="st0" d="M124.24,191.77h14.32c4.09,0,7.37,1.24,9.47,3.33,1.62,1.62,2.57,3.95,2.57,6.57v.09c0,5.52-3.81,8.75-9.04,9.7l10.23,13.6h-4.61l-9.66-12.94h-9.51v12.94h-3.76v-33.3h-.01ZM138.22,208.76c4.99,0,8.56-2.57,8.56-6.85v-.09c0-4.09-3.14-6.56-8.52-6.56h-10.27v13.51h10.23Z"/>
    <path class="st0" d="M158.15,191.77h4.19l11.84,28.68,11.89-28.68h4.04l-14.32,33.54h-3.33l-14.32-33.54h.01Z"/>
    <path class="st0" d="M199.05,191.77h24.07v3.43h-20.31v11.37h18.17v3.42h-18.17v11.65h20.55v3.43h-24.31v-33.3h0Z"/>
    <path class="st0" d="M231.1,220.22l2.33-2.76c3.47,3.14,6.8,4.71,11.42,4.71s7.42-2.38,7.42-5.66v-.1c0-3.09-1.66-4.85-8.66-6.33-7.66-1.66-11.18-4.14-11.18-9.61v-.1c0-5.23,4.61-9.09,10.94-9.09,4.85,0,8.32,1.38,11.7,4.09l-2.19,2.9c-3.09-2.52-6.18-3.62-9.61-3.62-4.33,0-7.09,2.38-7.09,5.37v.1c0,3.14,1.71,4.9,9.04,6.47,7.42,1.62,10.84,4.33,10.84,9.42v.09c0,5.71-4.76,9.42-11.37,9.42-5.28,0-9.61-1.76-13.61-5.33l.02.03Z"/>
    <path class="st0" d="M274.77,195.25h-11.23v-3.47h26.21v3.47h-11.23v29.82h-3.76v-29.82h.01Z"/>
  </g>
</svg>