<?xml version="1.0" encoding="UTF-8"?>
<svg id="_レイヤー_1" xmlns="http://www.w3.org/2000/svg" version="1.1" viewBox="0 0 329.52 235.89">
  <!-- Generator: Adobe Illustrator 29.6.1, SVG Export Plug-In . SVG Version: 2.1.1 Build 9)  -->
  <defs>
    <style>
      .st0 {
        fill: #228fb7;
      }
    </style>
  </defs>
  <g>
    <path class="st0" d="M7.88,49.45v-.19c0-19.12,14.75-35.13,35.62-35.13s35.43,15.82,35.43,34.95v.19c0,19.12-14.75,35.13-35.62,35.13S7.88,68.57,7.88,49.45ZM66.41,49.45v-.19c0-13.21-9.61-24.08-23.11-24.08s-22.91,10.68-22.91,23.88v.19c0,13.21,9.61,24.08,23.11,24.08s22.91-10.68,22.91-23.88Z"/>
    <path class="st0" d="M115.53,14.8h11.07l29.9,68.43h-12.62l-6.89-16.41h-32.13l-6.99,16.41h-12.23L115.53,14.8ZM132.61,56.24l-11.75-27.18-11.65,27.18h23.4Z"/>
    <path class="st0" d="M163.58,73.33l7.19-8.54c6.51,5.63,13.11,8.83,21.45,8.83,7.38,0,12.04-3.49,12.04-8.54v-.19c0-4.85-2.71-7.48-15.34-10.39-14.46-3.49-22.62-7.77-22.62-20.29v-.19c0-11.65,9.71-19.7,23.2-19.7,9.9,0,17.77,3,24.65,8.54l-6.41,9.02c-6.12-4.56-12.23-6.99-18.45-6.99-6.99,0-11.07,3.59-11.07,8.06v.19c0,5.24,3.1,7.58,16.21,10.68,14.36,3.49,21.74,8.64,21.74,19.9v.19c0,12.72-10,20.29-24.27,20.29-10.39,0-20.19-3.59-28.35-10.87h0Z"/>
    <path class="st0" d="M234.83,15.28h11.94v67.95h-11.94V15.28Z"/>
    <path class="st0" d="M264.24,73.33l7.19-8.54c6.51,5.63,13.11,8.83,21.45,8.83,7.38,0,12.04-3.49,12.04-8.54v-.19c0-4.85-2.72-7.48-15.34-10.39-14.46-3.49-22.62-7.77-22.62-20.29v-.19c0-11.65,9.71-19.7,23.2-19.7,9.9,0,17.77,3,24.66,8.54l-6.41,9.02c-6.12-4.56-12.23-6.99-18.45-6.99-6.99,0-11.07,3.59-11.07,8.06v.19c0,5.24,3.1,7.58,16.21,10.68,14.36,3.49,21.74,8.64,21.74,19.9v.19c0,12.72-10,20.29-24.26,20.29-10.39,0-20.19-3.59-28.35-10.87h0Z"/>
  </g>
  <g>
    <path class="st0" d="M68.28,151.72l2.33-2.76c3.47,3.14,6.8,4.71,11.42,4.71s7.42-2.38,7.42-5.66v-.1c0-3.09-1.66-4.85-8.66-6.33-7.66-1.66-11.18-4.14-11.18-9.61v-.1c0-5.23,4.61-9.09,10.94-9.09,4.85,0,8.32,1.38,11.7,4.09l-2.19,2.9c-3.09-2.52-6.18-3.62-9.61-3.62-4.33,0-7.09,2.38-7.09,5.37v.1c0,3.14,1.71,4.9,9.04,6.47,7.42,1.62,10.85,4.33,10.85,9.42v.09c0,5.71-4.76,9.42-11.37,9.42-5.28,0-9.61-1.76-13.6-5.33v.03h0Z"/>
    <path class="st0" d="M111.94,126.75h-11.23v-3.47h26.21v3.47h-11.23v29.82h-3.76v-29.82h.01Z"/>
    <path class="st0" d="M136.15,123.27h14.32c4.09,0,7.37,1.24,9.47,3.33,1.62,1.62,2.57,3.95,2.57,6.57v.09c0,5.52-3.81,8.75-9.04,9.7l10.23,13.6h-4.61l-9.66-12.94h-9.51v12.94h-3.76v-33.3h-.01ZM150.14,140.25c4.99,0,8.56-2.57,8.56-6.85v-.09c0-4.09-3.14-6.56-8.52-6.56h-10.27v13.51h10.23Z"/>
    <path class="st0" d="M172.91,123.27h24.07v3.43h-20.31v11.37h18.17v3.42h-18.17v11.65h20.55v3.43h-24.31v-33.3h0Z"/>
    <path class="st0" d="M207.16,123.27h24.07v3.43h-20.31v11.37h18.17v3.42h-18.17v11.65h20.55v3.43h-24.31v-33.3h0Z"/>
    <path class="st0" d="M250.06,126.75h-11.23v-3.47h26.21v3.47h-11.23v29.82h-3.76v-29.82h0,0Z"/>
    <path class="st0" d="M45.76,188.94h3.76v14.79h19.22v-14.79h3.76v33.3h-3.76v-14.98h-19.22v14.98h-3.76v-33.3Z"/>
    <path class="st0" d="M96.61,188.71h3.52l15.17,33.53h-4.04l-3.9-8.8h-18.12l-3.95,8.8h-3.85l15.17-33.53h0ZM105.88,210.06l-7.56-16.98-7.61,16.98h15.17Z"/>
    <path class="st0" d="M124.24,188.94h14.32c4.09,0,7.37,1.24,9.47,3.33,1.62,1.62,2.57,3.95,2.57,6.57v.09c0,5.52-3.81,8.75-9.04,9.7l10.23,13.6h-4.61l-9.66-12.94h-9.51v12.94h-3.76v-33.3h-.01ZM138.22,205.93c4.99,0,8.56-2.57,8.56-6.85v-.09c0-4.09-3.14-6.56-8.52-6.56h-10.27v13.51h10.23Z"/>
    <path class="st0" d="M158.15,188.94h4.19l11.84,28.68,11.89-28.68h4.04l-14.32,33.54h-3.33l-14.32-33.54h.01Z"/>
    <path class="st0" d="M199.05,188.94h24.07v3.43h-20.31v11.37h18.17v3.42h-18.17v11.65h20.55v3.43h-24.31v-33.3h0Z"/>
    <path class="st0" d="M231.1,217.39l2.33-2.76c3.47,3.14,6.8,4.71,11.42,4.71s7.42-2.38,7.42-5.66v-.1c0-3.09-1.66-4.85-8.66-6.33-7.66-1.66-11.18-4.14-11.18-9.61v-.1c0-5.23,4.61-9.09,10.94-9.09,4.85,0,8.32,1.38,11.7,4.09l-2.19,2.9c-3.09-2.52-6.18-3.62-9.61-3.62-4.33,0-7.09,2.38-7.09,5.37v.1c0,3.14,1.71,4.9,9.04,6.47,7.42,1.62,10.84,4.33,10.84,9.42v.09c0,5.71-4.76,9.42-11.37,9.42-5.28,0-9.61-1.76-13.61-5.33l.02.03h0Z"/>
    <path class="st0" d="M274.77,192.42h-11.23v-3.47h26.21v3.47h-11.23v29.82h-3.76v-29.82h.01Z"/>
  </g>
</svg>