<?xml version="1.0" encoding="UTF-8"?>
<svg id="_レイヤー_1" xmlns="http://www.w3.org/2000/svg" version="1.1" viewBox="0 0 538.58 235.89">
  <!-- Generator: Adobe Illustrator 29.7.1, SVG Export Plug-In . SVG Version: 2.1.1 Build 8)  -->
  <defs>
    <style>
      .st0 {
        fill: #008db8;
      }

      .st1 {
        fill: #bba765;
        font-family: Gotham-Light, Gotham;
        font-size: 47.45px;
        font-weight: 300;
      }

      .st2 {
        fill: #1c91b9;
      }
    </style>
  </defs>
  <g>
    <path class="st2" d="M131.78,68.75v-.17c0-17.04,13.15-31.31,31.74-31.31s31.57,14.1,31.57,31.15v.17c0,17.04-13.15,31.31-31.74,31.31s-31.57-14.11-31.57-31.15ZM183.94,68.75v-.17c0-11.77-8.56-21.46-20.6-21.46s-20.42,9.52-20.42,21.28v.17c0,11.77,8.56,21.46,20.6,21.46s20.42-9.52,20.42-21.28Z"/>
    <path class="st2" d="M227.71,37.87h9.87l26.65,60.98h-11.25l-6.14-14.62h-28.63l-6.23,14.62h-10.9l26.64-60.98ZM242.94,74.8l-10.47-24.22-10.38,24.22h20.85Z"/>
    <path class="st2" d="M270.54,90.03l6.41-7.61c5.8,5.02,11.68,7.87,19.12,7.87,6.58,0,10.73-3.11,10.73-7.61v-.17c0-4.32-2.42-6.67-13.67-9.26-12.89-3.11-20.16-6.92-20.16-18.08v-.17c0-10.38,8.65-17.56,20.68-17.56,8.82,0,15.84,2.67,21.97,7.61l-5.71,8.04c-5.45-4.06-10.9-6.23-16.44-6.23-6.23,0-9.87,3.2-9.87,7.18v.17c0,4.67,2.76,6.76,14.45,9.52,12.8,3.11,19.37,7.7,19.37,17.73v.17c0,11.34-8.91,18.08-21.63,18.08-9.26,0-17.99-3.2-25.27-9.69h.03Z"/>
    <path class="st2" d="M334.03,38.3h10.64v60.56h-10.64v-60.56Z"/>
    <path class="st2" d="M360.24,90.03l6.41-7.61c5.8,5.02,11.68,7.87,19.12,7.87,6.58,0,10.73-3.11,10.73-7.61v-.17c0-4.32-2.42-6.67-13.67-9.26-12.89-3.11-20.16-6.92-20.16-18.08v-.17c0-10.38,8.65-17.56,20.68-17.56,8.82,0,15.84,2.67,21.98,7.61l-5.71,8.04c-5.45-4.06-10.9-6.23-16.44-6.23-6.23,0-9.87,3.2-9.87,7.18v.17c0,4.67,2.76,6.76,14.45,9.52,12.8,3.11,19.37,7.7,19.37,17.73v.17c0,11.34-8.91,18.08-21.62,18.08-9.26,0-17.99-3.2-25.27-9.69h0Z"/>
  </g>
  <g>
    <path class="st0" d="M6.09,159.35l2.63-3.11c3.92,3.54,7.68,5.32,12.89,5.32s8.38-2.68,8.38-6.39v-.11c0-3.49-1.88-5.48-9.77-7.14-8.64-1.88-12.62-4.67-12.62-10.85v-.11c0-5.91,5.21-10.26,12.35-10.26,5.48,0,9.4,1.56,13.21,4.62l-2.47,3.28c-3.49-2.85-6.98-4.08-10.85-4.08-4.89,0-8,2.68-8,6.07v.11c0,3.54,1.93,5.53,10.2,7.3,8.38,1.83,12.24,4.89,12.24,10.63v.11c0,6.44-5.37,10.63-12.83,10.63-5.96,0-10.85-1.99-15.36-6.01Z"/>
    <path class="st0" d="M55.37,131.16h-12.67v-3.92h29.59v3.92h-12.67v33.67h-4.24v-33.67Z"/>
    <path class="st0" d="M82.7,127.25h16.16c4.62,0,8.32,1.4,10.69,3.76,1.83,1.83,2.9,4.46,2.9,7.41v.11c0,6.23-4.3,9.88-10.2,10.95l11.54,15.36h-5.21l-10.9-14.61h-10.74v14.61h-4.24v-37.59ZM98.49,146.41c5.64,0,9.67-2.9,9.67-7.73v-.11c0-4.62-3.54-7.41-9.61-7.41h-11.6v15.25h11.54Z"/>
    <path class="st0" d="M124.2,127.25h27.17v3.87h-22.93v12.83h20.51v3.87h-20.51v13.16h23.2v3.87h-27.44v-37.59Z"/>
    <path class="st0" d="M162.85,127.25h27.17v3.87h-22.93v12.83h20.51v3.87h-20.51v13.16h23.2v3.87h-27.44v-37.59Z"/>
    <path class="st0" d="M211.28,131.16h-12.67v-3.92h29.59v3.92h-12.67v33.67h-4.24v-33.67Z"/>
    <path class="st0" d="M257.39,127.25h4.24v16.7h21.69v-16.7h4.24v37.59h-4.24v-16.91h-21.69v16.91h-4.24v-37.59Z"/>
    <path class="st0" d="M314.79,126.98h3.97l17.13,37.85h-4.56l-4.4-9.93h-20.46l-4.46,9.93h-4.35l17.13-37.85ZM325.26,151.09l-8.54-19.17-8.59,19.17h17.13Z"/>
    <path class="st0" d="M345.98,127.25h16.16c4.62,0,8.32,1.4,10.69,3.76,1.82,1.83,2.9,4.46,2.9,7.41v.11c0,6.23-4.29,9.88-10.2,10.95l11.54,15.36h-5.21l-10.9-14.61h-10.74v14.61h-4.24v-37.59ZM361.76,146.41c5.64,0,9.66-2.9,9.66-7.73v-.11c0-4.62-3.54-7.41-9.61-7.41h-11.6v15.25h11.55Z"/>
    <path class="st0" d="M384.25,127.25h4.73l13.37,32.38,13.42-32.38h4.57l-16.16,37.86h-3.76l-16.16-37.86Z"/>
    <path class="st0" d="M430.42,127.25h27.17v3.87h-22.93v12.83h20.51v3.87h-20.51v13.16h23.2v3.87h-27.44v-37.59Z"/>
    <path class="st0" d="M466.61,159.35l2.63-3.11c3.92,3.54,7.68,5.32,12.89,5.32s8.38-2.68,8.38-6.39v-.11c0-3.49-1.88-5.48-9.77-7.14-8.64-1.88-12.62-4.67-12.62-10.85v-.11c0-5.91,5.21-10.26,12.35-10.26,5.48,0,9.4,1.56,13.21,4.62l-2.47,3.28c-3.49-2.85-6.98-4.08-10.85-4.08-4.89,0-8,2.68-8,6.07v.11c0,3.54,1.93,5.53,10.2,7.3,8.38,1.83,12.24,4.89,12.24,10.63v.11c0,6.44-5.37,10.63-12.83,10.63-5.96,0-10.85-1.99-15.36-6.01Z"/>
    <path class="st0" d="M515.9,131.16h-12.67v-3.92h29.59v3.92h-12.67v33.67h-4.24v-33.67Z"/>
  </g>
  <text class="st1" transform="translate(210.26 230.14)"><tspan x="0" y="0">2025</tspan></text>
</svg>