<?xml version="1.0" encoding="UTF-8"?>
<svg id="_レイヤー_1" xmlns="http://www.w3.org/2000/svg" version="1.1" viewBox="0 0 198.52 185.89">
  <!-- Generator: Adobe Illustrator 29.7.1, SVG Export Plug-In . SVG Version: 2.1.1 Build 8)  -->
  <defs>
    <style>
      .st0 {
        fill: #9da6a2;
      }

      .st1 {
        fill: #fff;
      }

      .st2 {
        fill: #6b7672;
      }

      .st3 {
        fill: #4e5347;
      }

      .st4 {
        fill: #bba765;
      }
    </style>
  </defs>
  <g id="layer1">
    <path class="st4" d="M187.47,174.47h-13.57s-17.88-27.4-44.63-34.19c19.75-2.21,38.5,13.02,49.15,23.87-.64-2.65-1.43-5.58-2.34-8.47-.72-2.32-1.53-4.61-2.32-6.75-.82-2.13-1.6-4.11-2.35-5.77-.71-1.68-1.37-3.05-1.83-4.01-.04-.09-.08-.17-.12-.25-.34-.71-.05-1.56.64-1.92.71-.37,1.59-.1,1.97.61.04.07.08.15.12.23.51.96,1.26,2.33,2.07,4.02.84,1.67,1.74,3.66,2.68,5.81.92,2.15,1.85,4.47,2.71,6.82,1.14,3.13,2.15,6.29,2.97,9.15,0-.34-.02-.66-.03-1.01-.09-1.37-.18-2.82-.27-4.31-.09-1.5-.28-3.03-.42-4.6-.13-1.57-.38-3.15-.57-4.73-.43-3.17-.99-6.31-1.61-9.24-.63-2.92-1.32-5.63-2.01-7.91-.69-2.28-1.34-4.16-1.85-5.43-.08-.19-.18-.44-.29-.7-.3-.71,0-1.53.69-1.87.73-.37,1.63-.06,1.97.69.13.28.26.55.34.75.59,1.33,1.33,3.26,2.14,5.6.79,2.34,1.61,5.1,2.36,8.09.75,2.99,1.43,6.2,1.99,9.43.25,1.62.57,3.23.76,4.84.2,1.6.44,3.17.59,4.7s.3,3.01.44,4.41c.1,1.41.19,2.73.27,3.96.2,2.45.2,4.5.27,5.94.05,1.43.08,2.25.08,2.25h0ZM124.42,94.24c2.32-.29,4.66-1.2,5.22-2.3.57-1.08-.84-1.92-3.16-1.64-2.32.28-4.66,1.59-5.23,2.67-.57,1.09.86,1.54,3.17,1.26h0ZM126.61,96.06c-.57,1.09.84,1.84,3.13,1.92,2.28.07,4.57-.57,5.14-1.66.57-1.08-.8-2.2-3.08-2.27-2.29-.08-4.63.93-5.19,2.01ZM139.17,94.69c2.22.41,4.43.03,5-1.05s-.73-2.47-2.95-2.88c-2.22-.41-4.52.31-5.09,1.39-.57,1.09.81,2.13,3.03,2.54h0ZM141.19,97.49c-.57,1.09.75,2.4,2.87,3.14,2.12.73,4.24.61,4.8-.48.57-1.08-.62-2.72-2.75-3.45-2.12-.74-4.36-.29-4.92.8h0ZM152.83,99.41c1.99,1.04,3.97,1.15,4.54.06.57-1.08-.5-2.96-2.48-3.99-1.98-1.04-4.12-.84-4.69.24-.57,1.09.65,2.65,2.64,3.69h0ZM154.49,103.08c-.57,1.09.54,2.89,2.34,4.22,1.82,1.32,3.64,1.65,4.21.56.56-1.08-.34-3.18-2.15-4.5s-3.84-1.37-4.4-.28h0ZM168.32,108.97c.57-1.08-.15-3.38-1.76-4.97-1.61-1.59-3.48-1.86-4.05-.78-.57,1.09.39,3.12,1.99,4.71,1.61,1.59,3.25,2.13,3.82,1.04h0ZM165.61,112.38c-.57,1.09.21,3.33,1.57,5.17,1.37,1.83,2.8,2.57,3.37,1.48.57-1.08.06-3.58-1.31-5.41-1.36-1.84-3.07-2.32-3.63-1.24h0ZM176.13,121.67c.56-1.08.3-3.75-.79-5.82s-2.58-2.75-3.15-1.66c-.57,1.09,0,3.53,1.09,5.6,1.09,2.06,2.28,2.97,2.85,1.89h0ZM114.83,115.28c2.26-.6,4.45-1.82,4.86-2.98.42-1.15-1.09-1.79-3.35-1.2-2.26.59-4.41,2.2-4.83,3.35-.42,1.15,1.06,1.42,3.32.83h0ZM122.12,114.09c-2.28.23-4.46,1.54-4.87,2.69-.42,1.15,1.08,1.71,3.36,1.48,2.27-.24,4.46-1.18,4.87-2.34.42-1.15-1.08-2.08-3.36-1.84h0ZM134.32,112.03c.42-1.15-1.05-2.35-3.31-2.46-2.25-.11-4.44.91-4.86,2.06-.42,1.15,1.09,2,3.35,2.11,2.26.11,4.4-.56,4.82-1.72h0ZM131.88,116.25c-.42,1.16,1.06,2.28,3.26,2.72s4.28.04,4.69-1.12c.42-1.15-.98-2.61-3.18-3.05-2.2-.45-4.35.3-4.77,1.45h0ZM148.17,116.04c.42-1.15-.89-2.86-2.99-3.62s-4.2-.28-4.62.87c-.42,1.16,1,2.54,3.11,3.31,2.11.76,4.09.6,4.5-.55h0ZM152.95,123.87c.41-1.15-.76-3.1-2.74-4.17-1.97-1.07-3.99-.84-4.4.31-.42,1.15.92,2.8,2.89,3.87,1.98,1.07,3.83,1.15,4.25,0h0ZM160.3,123.99c.41-1.15-.61-3.33-2.41-4.69-1.81-1.36-3.7-1.38-4.11-.23-.42,1.15.8,3.04,2.6,4.4,1.81,1.36,3.51,1.67,3.92.52h0ZM158.07,127.73c-.42,1.15.65,3.27,2.25,4.91,1.6,1.63,3.11,2.17,3.53,1.01.42-1.15-.42-3.55-2.02-5.19s-3.35-1.89-3.76-.74h0ZM164.84,128.64c-.42,1.16.47,3.49,1.83,5.4,1.36,1.9,2.65,2.64,3.08,1.49.41-1.15-.21-3.76-1.57-5.66-1.36-1.9-2.92-2.37-3.34-1.22h0ZM112.81,131.19c-1.92,1.33-3.39,3.58-3.39,4.8s1.48.97,3.4-.36c1.91-1.33,3.56-3.23,3.55-4.46,0-1.22-1.64-1.31-3.56.02h0ZM119.26,132.02c-2.06,1-3.66,2.98-3.66,4.2s1.6,1.24,3.67.24c2.05-1,3.78-2.63,3.78-3.86s-1.73-1.58-3.79-.58h0ZM130.02,125.9c0-1.22-1.79-1.85-3.95-1.18s-3.86,2.38-3.86,3.6,1.71,1.51,3.87.84c2.16-.67,3.94-2.03,3.94-3.26h0ZM133.17,132.14c2.22-.34,4.03-1.43,4.03-2.66s-1.82-2.12-4.04-1.78c-2.22.33-3.99,1.78-3.98,3,0,1.23,1.78,1.78,4,1.44h-.01ZM136.32,124.95c0,1.23,1.81,2.04,4.05,2.04s4.05-.83,4.04-2.06c0-1.22-1.82-2.39-4.05-2.38-2.24,0-4.04,1.17-4.04,2.4h0ZM147.59,132.1c2.22.32,3.99-.23,3.99-1.46s-1.78-2.66-4-2.98c-2.22-.33-4.04.57-4.03,1.8,0,1.23,1.82,2.31,4.04,2.64h0Z"/>
  </g>
  <g>
    <circle class="st2" cx="52.03" cy="132.22" r="41.19"/>
    <circle class="st1" cx="52.03" cy="132.22" r="16.47"/>
    <circle class="st0" cx="52.03" cy="132.22" r="1.98"/>
  </g>
  <g>
    <path class="st3" d="M8.66,37.52c-.93,0-1.39-.69-1.39-1.39,0-.64.46-1.33,1.39-1.33l15.52.06-.06-.17c-1.33-2.66-2.95-4.92-4.81-6.95-.17-.23-.29-.46-.29-.64,0-.7.7-1.33,1.51-1.33,1.91,0,6.54,6.95,6.54,8.05,0,.41-.17.75-.41,1.04h8.05c1.62-2.61,3.24-6.14,4-8.28.29-.75.87-1.1,1.45-1.1.87,0,1.74.7,1.74,1.56,0,1.33-3.76,7.41-4.05,7.82l15.58-.06c.93,0,1.39.7,1.39,1.33,0,.7-.46,1.39-1.39,1.39H8.66ZM12.48,23.85c-.93,0-1.39-.7-1.39-1.39,0-.64.46-1.33,1.39-1.33h17.03l-.12-5.33c0-.93.81-1.39,1.68-1.39.81,0,1.62.46,1.62,1.39l-.06,5.33h16.91c.93,0,1.39.7,1.39,1.33,0,.69-.46,1.39-1.39,1.39H12.48ZM40.11,64.05c-3.13.06-5.91.12-8.57.12-3.07,0-6.02-.06-9.21-.17-3.94-.12-5.73-2.26-5.91-5.21-.06-1.8-.12-3.59-.12-5.39s.06-3.65.12-5.5c.12-2.55,1.91-4.92,5.79-4.98,2.37-.06,4.52-.06,6.72-.06,3.48,0,6.95.06,11.47.12,3.3.06,5.5,2.2,5.62,4.58.12,1.85.12,3.76.12,5.62s0,3.71-.12,5.62c-.17,2.9-2.38,5.15-5.91,5.27ZM43.12,52c0-4.29-.12-6.49-3.94-6.6-3.3-.06-6.6-.12-9.96-.12-2.08,0-4.11,0-6.2.06-2.43.06-3.71,1.33-3.77,3.3-.06,1.1-.06,2.2-.06,3.3l23.92.06ZM19.2,54.38c0,1.22,0,2.49.06,3.71.12,3.53,2.03,3.53,12.34,3.53,2.55,0,5.1-.06,7.7-.12,3.77-.12,3.82-2.14,3.82-7.12h-23.92Z"/>
    <path class="st3" d="M87.03,24.14c-.41-.52-.58-.98-.58-1.39,0-.93.87-1.56,1.8-1.56.58,0,1.22.29,1.62.87,2.66,3.82,5.68,9.9,7.41,15.06.46-.29,11.41-7.59,13.09-7.59.98,0,1.68.7,1.68,1.56,0,.64-.46,1.39-1.51,1.97-7.65,3.94-22.01,11.47-22.01,19.11,0,6.66,9.85,6.66,10.95,6.66,3.82,0,7.82-.75,10.25-1.74.41-.17.81-.23,1.1-.23,1.1,0,1.68.75,1.68,1.62,0,.81-.52,1.68-1.74,2.08-2.9.87-6.89,1.51-10.83,1.51-11.87,0-14.54-5.73-14.54-9.67,0-5.39,4.92-10.25,9.21-13.38-1.56-4.87-4.75-11.41-7.59-14.89Z"/>
    <path class="st3" d="M162.8,40.25c-7.88,11.41-19.92,19.87-21.78,19.87-.99,0-1.74-.75-1.74-1.56,0-.46.35-1.04,1.04-1.39,7.99-4.23,15.52-11.53,20.97-19.35l-19.23.12c-.93,0-1.39-.7-1.39-1.39,0-.75.46-1.45,1.39-1.45l20.74.12-.12-18.54c0-.87.75-1.27,1.56-1.27s1.62.46,1.62,1.33l-.23,18.48,20.91-.12c.93,0,1.39.75,1.39,1.45s-.46,1.39-1.33,1.39l-19.64-.12c5.79,7.7,13.73,14.6,21.32,18.54.69.35,1.04.93,1.04,1.45,0,.93-.81,1.8-1.85,1.8-1.91,0-13.55-8.34-21.78-19.52l.12,23.34c0,.87-.81,1.27-1.56,1.27-.81,0-1.62-.41-1.62-1.27l.17-23.17ZM153.71,30.46c-1.74-3.07-5.1-5.97-6.72-7.07-.41-.29-.58-.64-.58-.98,0-.75.81-1.51,1.68-1.51,1.51,0,8.63,6.43,8.63,8.63,0,.98-.81,1.74-1.68,1.74-.46,0-.98-.23-1.33-.81ZM171.61,29.94c0-.29.12-.7.46-.98,2.55-2.38,5.62-6.08,7.07-8.57.29-.46.7-.69,1.16-.69.87,0,1.79.81,1.79,1.8,0,.29-.12.64-.35.93-1.39,1.91-6.72,8.92-8.63,8.92-.81,0-1.51-.64-1.51-1.39Z"/>
  </g>
</svg>