<?xml version="1.0" encoding="UTF-8"?>
<svg id="_レイヤー_1" xmlns="http://www.w3.org/2000/svg" version="1.1" viewBox="0 0 198.52 185.89">
  <!-- Generator: Adobe Illustrator 29.7.1, SVG Export Plug-In . SVG Version: 2.1.1 Build 8)  -->
  <defs>
    <style>
      .st0 {
        fill: #9da6a2;
      }

      .st1 {
        fill: #fff;
      }

      .st2 {
        fill: #6b7672;
      }

      .st3 {
        fill: #4e5347;
      }

      .st4 {
        fill: #bba765;
      }
    </style>
  </defs>
  <g id="layer1">
    <path class="st4" d="M187.47,175.89h-13.57s-17.88-27.4-44.63-34.19c19.75-2.21,38.5,13.02,49.15,23.87-.64-2.65-1.43-5.58-2.34-8.47-.72-2.32-1.53-4.61-2.32-6.75-.82-2.13-1.6-4.11-2.35-5.77-.71-1.68-1.37-3.05-1.83-4.01-.04-.09-.08-.17-.12-.25-.34-.71-.05-1.56.64-1.92.71-.37,1.59-.1,1.97.61.04.07.08.15.12.23.51.96,1.26,2.33,2.07,4.02.84,1.67,1.74,3.66,2.68,5.81.92,2.15,1.85,4.47,2.71,6.82,1.14,3.13,2.15,6.29,2.97,9.15,0-.34-.02-.66-.03-1.01-.09-1.37-.18-2.82-.27-4.31-.09-1.5-.28-3.03-.42-4.6-.13-1.57-.38-3.15-.57-4.73-.43-3.17-.99-6.31-1.61-9.24-.63-2.92-1.32-5.63-2.01-7.91-.69-2.28-1.34-4.16-1.85-5.43-.08-.19-.18-.44-.29-.7-.3-.71,0-1.53.69-1.87.73-.37,1.63-.06,1.97.69.13.28.26.55.34.75.59,1.33,1.33,3.26,2.14,5.6.79,2.34,1.61,5.1,2.36,8.09.75,2.99,1.43,6.2,1.99,9.43.25,1.62.57,3.23.76,4.84.2,1.6.44,3.17.59,4.7s.3,3.01.44,4.41c.1,1.41.19,2.73.27,3.96.2,2.45.2,4.5.27,5.94.05,1.43.08,2.25.08,2.25h0ZM124.42,95.66c2.32-.29,4.66-1.2,5.22-2.3.57-1.08-.84-1.92-3.16-1.64-2.32.28-4.66,1.59-5.23,2.67-.57,1.09.86,1.54,3.17,1.26h0ZM126.61,97.48c-.57,1.09.84,1.84,3.13,1.92,2.28.07,4.57-.57,5.14-1.66.57-1.08-.8-2.2-3.08-2.27-2.29-.08-4.63.93-5.19,2.01ZM139.17,96.11c2.22.41,4.43.03,5-1.05s-.73-2.47-2.95-2.88c-2.22-.41-4.52.31-5.09,1.39-.57,1.09.81,2.13,3.03,2.54h0ZM141.19,98.91c-.57,1.09.75,2.4,2.87,3.14,2.12.73,4.24.61,4.8-.48.57-1.08-.62-2.72-2.75-3.45-2.12-.74-4.36-.29-4.92.8h0ZM152.83,100.83c1.99,1.04,3.97,1.15,4.54.06.57-1.08-.5-2.96-2.48-3.99-1.98-1.04-4.12-.84-4.69.24-.57,1.09.65,2.65,2.64,3.69h0ZM154.49,104.5c-.57,1.09.54,2.89,2.34,4.22,1.82,1.32,3.64,1.65,4.21.56.56-1.08-.34-3.18-2.15-4.5s-3.84-1.37-4.4-.28h0ZM168.32,110.39c.57-1.08-.15-3.38-1.76-4.97-1.61-1.59-3.48-1.86-4.05-.78-.57,1.09.39,3.12,1.99,4.71,1.61,1.59,3.25,2.13,3.82,1.04h0ZM165.61,113.8c-.57,1.09.21,3.33,1.57,5.17,1.37,1.83,2.8,2.57,3.37,1.48.57-1.08.06-3.58-1.31-5.41-1.36-1.84-3.07-2.32-3.63-1.24h0ZM176.13,123.09c.56-1.08.3-3.75-.79-5.82s-2.58-2.75-3.15-1.66c-.57,1.09,0,3.53,1.09,5.6,1.09,2.06,2.28,2.97,2.85,1.89h0ZM114.83,116.7c2.26-.6,4.45-1.82,4.86-2.98.42-1.15-1.09-1.79-3.35-1.2-2.26.59-4.41,2.2-4.83,3.35-.42,1.15,1.06,1.42,3.32.83h0ZM122.12,115.51c-2.28.23-4.46,1.54-4.87,2.69-.42,1.15,1.08,1.71,3.36,1.48,2.27-.24,4.46-1.18,4.87-2.34.42-1.15-1.08-2.08-3.36-1.84h0ZM134.32,113.45c.42-1.15-1.05-2.35-3.31-2.46-2.25-.11-4.44.91-4.86,2.06-.42,1.15,1.09,2,3.35,2.11,2.26.11,4.4-.56,4.82-1.72h0ZM131.88,117.67c-.42,1.16,1.06,2.28,3.26,2.72s4.28.04,4.69-1.12c.42-1.15-.98-2.61-3.18-3.05-2.2-.45-4.35.3-4.77,1.45h0ZM148.17,117.46c.42-1.15-.89-2.86-2.99-3.62s-4.2-.28-4.62.87c-.42,1.16,1,2.54,3.11,3.31,2.11.76,4.09.6,4.5-.55h0ZM152.95,125.29c.41-1.15-.76-3.1-2.74-4.17-1.97-1.07-3.99-.84-4.4.31-.42,1.15.92,2.8,2.89,3.87,1.98,1.07,3.83,1.15,4.25,0h0ZM160.3,125.41c.41-1.15-.61-3.33-2.41-4.69-1.81-1.36-3.7-1.38-4.11-.23-.42,1.15.8,3.04,2.6,4.4,1.81,1.36,3.51,1.67,3.92.52h0ZM158.07,129.15c-.42,1.15.65,3.27,2.25,4.91,1.6,1.63,3.11,2.17,3.53,1.01.42-1.15-.42-3.55-2.02-5.19s-3.35-1.89-3.76-.74h0ZM164.84,130.06c-.42,1.16.47,3.49,1.83,5.4,1.36,1.9,2.65,2.64,3.08,1.49.41-1.15-.21-3.76-1.57-5.66-1.36-1.9-2.92-2.37-3.34-1.22h0ZM112.81,132.61c-1.92,1.33-3.39,3.58-3.39,4.8s1.48.97,3.4-.36c1.91-1.33,3.56-3.23,3.55-4.46,0-1.22-1.64-1.31-3.56.02h0ZM119.26,133.44c-2.06,1-3.66,2.98-3.66,4.2s1.6,1.24,3.67.24c2.05-1,3.78-2.63,3.78-3.86s-1.73-1.58-3.79-.58h0ZM130.02,127.32c0-1.22-1.79-1.85-3.95-1.18s-3.86,2.38-3.86,3.6,1.71,1.51,3.87.84c2.16-.67,3.94-2.03,3.94-3.26h0ZM133.17,133.56c2.22-.34,4.03-1.43,4.03-2.66s-1.82-2.12-4.04-1.78c-2.22.33-3.99,1.78-3.98,3,0,1.23,1.78,1.78,4,1.44h-.01ZM136.32,126.37c0,1.23,1.81,2.04,4.05,2.04s4.05-.83,4.04-2.06c0-1.22-1.82-2.39-4.05-2.38-2.24,0-4.04,1.17-4.04,2.4h0ZM147.59,133.52c2.22.32,3.99-.23,3.99-1.46s-1.78-2.66-4-2.98c-2.22-.33-4.04.57-4.03,1.8,0,1.23,1.82,2.31,4.04,2.64h0Z"/>
  </g>
  <g>
    <circle class="st2" cx="52.03" cy="133.64" r="41.19"/>
    <circle class="st1" cx="52.03" cy="133.64" r="16.47"/>
    <circle class="st0" cx="52.03" cy="133.64" r="1.98"/>
  </g>
  <g>
    <path class="st3" d="M61.88,37.17H10.98v-3.87h14.77l-4.65-6.64,3.32-2.27,4.81,6.92-2.82,1.99h15.66l6.64-9.02H13.47v-3.87h21.08v-5.53h4.32v5.53h20.64v3.87h-10.12l3.04,2.32-4.98,6.69h14.44v3.87ZM55.57,65.22h-4.26v-2.21h-29.66v2.21h-4.26v-23.74h38.18v23.74ZM51.31,50.39v-4.98h-29.66v4.98h29.66ZM51.31,59.25v-5.09h-29.66v5.09h29.66Z"/>
    <path class="st3" d="M115.16,59.8l-14.94.17c-9.02.06-13.56-3.15-13.67-9.52-.06-4.7,3.04-8.8,9.35-12.28-.5-1.88-1.33-4.76-2.6-8.69-.5-1.6-1.33-4.04-2.49-7.3l3.93-1.49c1.94,5.26,3.54,10.46,4.87,15.66,2.99-1.22,7.41-3.1,13.28-5.7l1.77,3.82c-2.99,1.16-5.98,2.38-8.96,3.6-4.48,1.83-7.91,3.54-10.29,5.2-3.26,2.32-4.87,4.7-4.81,7.19.06,1.38.44,2.54,1.27,3.38,1.38,1.44,4.09,2.16,8.13,2.1l15.16-.11v3.98Z"/>
    <path class="st3" d="M186.37,60.69c-8.47-5.53-15.38-12.39-20.69-20.53v24.34h-4.26v-23.96c-5.37,7.36-12.39,14.05-21.14,20.08l-2.32-3.26c8.19-5.7,14.99-12.23,20.42-19.48h-19.09v-3.87h22.13V15.48h4.26v18.54h22.35v3.87h-19.03c5.15,7.8,11.67,14.27,19.59,19.48l-2.21,3.32ZM155.06,27.99l-3.15,2.54-8.35-10.24,3.15-2.54,8.35,10.24ZM183.66,19.8l-8.58,11.4-3.21-2.43,8.58-11.45,3.21,2.49Z"/>
  </g>
</svg>