<?xml version="1.0" encoding="UTF-8"?>
<svg id="_レイヤー_1" xmlns="http://www.w3.org/2000/svg" version="1.1" viewBox="0 0 329.52 305.24">
  <!-- Generator: Adobe Illustrator 29.8.1, SVG Export Plug-In . SVG Version: 2.1.1 Build 2)  -->
  <defs>
    <style>
      .st0 {
        fill: #bba765;
      }

      .st1 {
        fill: #3295d0;
      }
    </style>
  </defs>
  <g>
    <path class="st0" d="M111.74,283.73h14.89v4.74h-23.09v-2.2l13.82-16.75c2.3-2.82,3.88-5.81,3.88-7.5,0-3.72-2.64-6.2-6.63-6.2s-6.74,2.26-7.02,5.58l-4.38-.96c.73-5.58,5.11-9.31,11.4-9.31,6.91,0,11.52,4.34,11.52,10.88,0,2.88-1.85,6.66-4.27,9.53l-10.11,12.18h-.01Z"/>
    <path class="st0" d="M135.74,270.14c0-10.49,2.75-19.01,13.31-19.01s13.32,8.52,13.32,19.01-2.75,19.01-13.32,19.01-13.31-8.63-13.31-19.01h0ZM157.48,270.14c0-7.78-1.69-14.32-8.43-14.32s-8.37,6.54-8.37,14.32,1.63,14.38,8.37,14.38,8.43-6.71,8.43-14.38h0Z"/>
    <path class="st0" d="M179.51,283.73h14.89v4.74h-23.09v-2.2l13.82-16.75c2.3-2.82,3.88-5.81,3.88-7.5,0-3.72-2.64-6.2-6.63-6.2s-6.74,2.26-7.02,5.58l-4.38-.96c.73-5.58,5.11-9.31,11.41-9.31,6.91,0,11.52,4.34,11.52,10.88,0,2.88-1.85,6.66-4.27,9.53l-10.11,12.18h-.02Z"/>
    <path class="st0" d="M228.84,276.57c0,7.5-5.45,12.58-12.98,12.58-6.35,0-11.01-3.55-13.32-8.35l4.1-2.26c1.46,3.38,4.61,5.98,8.99,5.98,4.78,0,8.31-3.21,8.31-7.84s-3.65-7.56-8.15-7.56c-3.03,0-6.18,1.3-8.99,3.38l-3.03-2.54,3.2-18.39h19.44v4.68h-15.45l-2.08,11.05c2.19-1.52,5.06-2.54,7.98-2.54,7.02,0,11.97,4.62,11.97,11.79v.02h0Z"/>
  </g>
  <g>
    <path class="st1" d="M27.23,42.96c0-17.8,13.75-32.52,31.5-32.52s31.68,14.71,31.68,32.52-13.85,32.25-31.68,32.25-31.5-14.53-31.5-32.25ZM81.08,42.96c0-12.9-9.59-23.8-22.36-23.8s-22.18,10.9-22.18,23.8,9.51,23.52,22.18,23.52,22.36-10.72,22.36-23.52Z"/>
    <path class="st1" d="M145.7,74.11l-5.79-15.8h-25.98l-5.79,15.8h-9.78l23.63-62.59h9.96l23.53,62.59h-9.78ZM116.92,50.13h20l-9.96-27.25-10.04,27.25Z"/>
    <path class="st1" d="M165.43,56.13h9.23c.18,5.36,5.16,10.53,12.94,10.53s11.77-4.73,11.77-9.9c0-5.54-4.98-8.18-10.04-9.54l-7.96-2c-13.3-3.36-15.48-11.27-15.48-16.44,0-10.99,9.69-18.35,20.73-18.35s20,7.09,20,18.53h-9.23c0-5.9-4.61-9.99-11.04-9.99-5.88,0-11.14,3.91-11.14,9.63,0,2,.63,6.09,8.51,8.17l7.88,2.18c10.5,2.81,17.1,8.17,17.1,17.35,0,10.45-8.51,18.89-21.09,18.89-13.31,0-22.18-8.99-22.18-19.07h0Z"/>
    <path class="st1" d="M226.53,74.11V11.53h9.32v62.59h-9.32Z"/>
    <path class="st1" d="M254.22,56.13h9.23c.18,5.36,5.16,10.53,12.94,10.53s11.77-4.73,11.77-9.9c0-5.54-4.98-8.18-10.04-9.54l-7.96-2c-13.31-3.36-15.48-11.27-15.48-16.44,0-10.99,9.69-18.35,20.73-18.35s20,7.09,20,18.53h-9.23c0-5.9-4.61-9.99-11.04-9.99-5.88,0-11.14,3.91-11.14,9.63,0,2,.63,6.09,8.51,8.17l7.88,2.18c10.5,2.81,17.1,8.17,17.1,17.35,0,10.45-8.51,18.89-21.09,18.89-13.31,0-22.18-8.99-22.18-19.07h0Z"/>
  </g>
  <g>
    <path class="st1" d="M65.8,135.93h5.06c.17,3.44,3.43,6.95,8.61,6.95s7.82-3.28,7.82-6.72c0-3.78-3.43-5.48-6.7-6.33l-5.01-1.24c-8.22-1.98-9.51-6.83-9.51-10,0-6.72,6.02-11.24,12.77-11.24s12.27,4.35,12.27,11.29h-5.06c0-3.9-3.21-6.55-7.37-6.55-3.88,0-7.48,2.6-7.48,6.44,0,1.36.45,4.07,5.63,5.42l5.06,1.36c6.58,1.75,10.52,5.14,10.52,10.67,0,6.04-4.9,11.63-12.94,11.63s-13.62-5.65-13.67-11.69h0Z"/>
    <path class="st1" d="M127.65,108.03v4.74h-11.82v34.17h-5.12v-34.17h-11.82v-4.74s28.76,0,28.76,0Z"/>
    <path class="st1" d="M157.3,146.94l-10.19-14.68h-5.01v14.68h-5.12v-38.91h14.58c8.44,0,11.71,6.1,11.71,12.14,0,5.65-3.21,11.63-10.13,12.14l10.3,14.63h-6.14ZM142.11,112.77v14.8h8.1c5.68,0,7.93-2.99,7.93-7.4s-2.53-7.4-6.47-7.4h-9.57,0Z"/>
    <path class="st1" d="M179.65,142.19h18.35v4.74h-23.41v-38.91h22.85v4.74h-17.78v12.65h15.53v4.8h-15.53v11.97h-.01Z"/>
    <path class="st1" d="M214.14,142.19h18.35v4.74h-23.41v-38.91h22.85v4.74h-17.78v12.65h15.53v4.8h-15.53v11.97h-.01Z"/>
    <path class="st1" d="M268.05,108.03v4.74h-11.82v34.17h-5.12v-34.17h-11.82v-4.74s28.76,0,28.76,0Z"/>
    <path class="st1" d="M69.21,177.26h5.12v38.91h-5.12v-17h-19.02v17h-5.12v-38.91h5.12v17.22h19.02v-17.22Z"/>
    <path class="st1" d="M112.2,216.18l-3.77-10h-16.66l-3.77,10h-5.35l14.74-38.91h5.4l14.74,38.91h-5.35s.02,0,.02,0ZM93.46,201.66h13.28l-6.64-17.68-6.64,17.68h0Z"/>
    <path class="st1" d="M146.19,216.18l-10.19-14.68h-5.01v14.68h-5.12v-38.91h14.58c8.44,0,11.71,6.1,11.71,12.14,0,5.65-3.21,11.63-10.13,12.14l10.3,14.63h-6.14ZM131,182.01v14.8h8.1c5.68,0,7.93-2.99,7.93-7.4s-2.53-7.4-6.47-7.4h-9.57.01Z"/>
    <path class="st1" d="M182.54,177.26h5.23l-11.65,38.91h-4.9l-11.71-38.91h5.23l8.89,30.33,8.89-30.33h.02Z"/>
    <path class="st1" d="M202.58,211.43h18.35v4.74h-23.41v-38.91h22.85v4.74h-17.78v12.65h15.53v4.8h-15.53v11.97h-.01Z"/>
    <path class="st1" d="M229.48,205.16h5.06c.17,3.44,3.43,6.95,8.61,6.95s7.82-3.28,7.82-6.72c0-3.78-3.43-5.48-6.7-6.33l-5.01-1.24c-8.22-1.98-9.51-6.83-9.51-10,0-6.72,6.02-11.24,12.77-11.24s12.27,4.35,12.27,11.29h-5.06c0-3.9-3.21-6.55-7.37-6.55-3.88,0-7.48,2.6-7.48,6.44,0,1.36.45,4.07,5.63,5.42l5.07,1.36c6.58,1.75,10.52,5.14,10.52,10.67,0,6.04-4.9,11.63-12.94,11.63s-13.62-5.65-13.67-11.69h-.01Z"/>
    <path class="st1" d="M291.32,177.26v4.74h-11.82v34.17h-5.12v-34.17h-11.82v-4.74h28.76Z"/>
  </g>
</svg>