<?xml version="1.0" encoding="UTF-8"?>
<svg id="_レイヤー_1" xmlns="http://www.w3.org/2000/svg" version="1.1" viewBox="0 0 329.52 235.89">
  <!-- Generator: Adobe Illustrator 29.6.1, SVG Export Plug-In . SVG Version: 2.1.1 Build 9)  -->
  <defs>
    <style>
      .st0 {
        fill: #008eb8;
      }
    </style>
  </defs>
  <g>
    <path class="st0" d="M32.51,57.9v-.16c0-16.07,12.4-29.52,29.93-29.52s29.77,13.3,29.77,29.37v.16c0,16.07-12.4,29.52-29.93,29.52s-29.77-13.3-29.77-29.37ZM81.69,57.9v-.16c0-11.1-8.07-20.23-19.42-20.23s-19.25,8.97-19.25,20.07v.16c0,11.1,8.07,20.23,19.42,20.23s19.25-8.97,19.25-20.07Z"/>
    <path class="st0" d="M122.97,28.79h9.3l25.13,57.5h-10.61l-5.79-13.79h-27l-5.88,13.79h-10.28l25.13-57.5ZM137.32,63.61l-9.87-22.84-9.79,22.84h19.66Z"/>
    <path class="st0" d="M163.34,77.97l6.04-7.17c5.47,4.73,11.02,7.42,18.03,7.42,6.2,0,10.12-2.93,10.12-7.17v-.16c0-4.08-2.28-6.28-12.89-8.73-12.15-2.93-19.01-6.53-19.01-17.05v-.16c0-9.79,8.16-16.56,19.5-16.56,8.32,0,14.93,2.53,20.71,7.17l-5.39,7.58c-5.14-3.83-10.28-5.88-15.5-5.88-5.88,0-9.3,3.02-9.3,6.77v.16c0,4.4,2.61,6.37,13.62,8.97,12.07,2.93,18.27,7.26,18.27,16.72v.16c0,10.69-8.4,17.05-20.4,17.05-8.73,0-16.96-3.02-23.82-9.14h0Z"/>
    <path class="st0" d="M223.22,29.2h10.03v57.09h-10.03V29.2Z"/>
    <path class="st0" d="M247.94,77.97l6.04-7.17c5.47,4.73,11.02,7.42,18.03,7.42,6.2,0,10.12-2.93,10.12-7.17v-.16c0-4.08-2.29-6.28-12.89-8.73-12.15-2.93-19.01-6.53-19.01-17.05v-.16c0-9.79,8.16-16.56,19.5-16.56,8.32,0,14.93,2.53,20.72,7.17l-5.39,7.58c-5.14-3.83-10.28-5.88-15.5-5.88-5.88,0-9.3,3.02-9.3,6.77v.16c0,4.4,2.61,6.37,13.62,8.97,12.07,2.93,18.27,7.26,18.27,16.72v.16c0,10.69-8.4,17.05-20.39,17.05-8.73,0-16.96-3.02-23.82-9.14h0Z"/>
  </g>
  <g>
    <path class="st0" d="M64.77,151.93l2.42-2.86c3.6,3.26,7.05,4.88,11.84,4.88s7.69-2.47,7.69-5.87v-.1c0-3.2-1.72-5.03-8.98-6.56-7.94-1.72-11.59-4.29-11.59-9.96v-.1c0-5.42,4.78-9.43,11.34-9.43,5.03,0,8.63,1.43,12.13,4.24l-2.27,3.01c-3.2-2.61-6.41-3.75-9.96-3.75-4.49,0-7.35,2.47-7.35,5.57v.1c0,3.26,1.77,5.08,9.37,6.71,7.69,1.68,11.25,4.49,11.25,9.77v.09c0,5.92-4.94,9.77-11.79,9.77-5.47,0-9.96-1.82-14.1-5.53v.03h0Z"/>
    <path class="st0" d="M110.04,126.04h-11.64v-3.6h27.18v3.6h-11.64v30.92h-3.9v-30.92h.01Z"/>
    <path class="st0" d="M135.14,122.43h14.85c4.24,0,7.64,1.29,9.82,3.45,1.68,1.68,2.66,4.1,2.66,6.81v.09c0,5.72-3.95,9.07-9.37,10.06l10.61,14.1h-4.78l-10.02-13.42h-9.86v13.42h-3.9v-34.53h-.01ZM149.65,140.04c5.17,0,8.88-2.66,8.88-7.1v-.09c0-4.24-3.26-6.8-8.83-6.8h-10.65v14.01h10.61Z"/>
    <path class="st0" d="M173.26,122.43h24.96v3.56h-21.06v11.79h18.84v3.55h-18.84v12.08h21.31v3.56h-25.21v-34.53h0Z"/>
    <path class="st0" d="M208.77,122.43h24.96v3.56h-21.06v11.79h18.84v3.55h-18.84v12.08h21.31v3.56h-25.21v-34.53h0Z"/>
    <path class="st0" d="M253.26,126.04h-11.64v-3.6h27.18v3.6h-11.64v30.92h-3.9v-30.92h.01,0Z"/>
    <path class="st0" d="M41.42,190.52h3.9v15.34h19.93v-15.34h3.9v34.53h-3.9v-15.53h-19.93v15.53h-3.9v-34.53Z"/>
    <path class="st0" d="M94.14,190.29h3.65l15.73,34.77h-4.19l-4.04-9.12h-18.79l-4.1,9.12h-3.99l15.73-34.77h0ZM103.76,212.42l-7.84-17.61-7.89,17.61h15.73Z"/>
    <path class="st0" d="M122.79,190.52h14.85c4.24,0,7.64,1.29,9.82,3.45,1.68,1.68,2.66,4.1,2.66,6.81v.09c0,5.72-3.95,9.07-9.37,10.06l10.61,14.1h-4.78l-10.02-13.42h-9.86v13.42h-3.9v-34.53h-.01ZM137.29,208.14c5.17,0,8.88-2.66,8.88-7.1v-.09c0-4.24-3.26-6.8-8.83-6.8h-10.65v14.01h10.61Z"/>
    <path class="st0" d="M157.95,190.52h4.34l12.28,29.74,12.33-29.74h4.19l-14.85,34.78h-3.45l-14.85-34.78h.01Z"/>
    <path class="st0" d="M200.36,190.52h24.96v3.56h-21.06v11.79h18.84v3.55h-18.84v12.08h21.31v3.56h-25.21v-34.53h0Z"/>
    <path class="st0" d="M233.6,220.02l2.42-2.86c3.6,3.26,7.05,4.88,11.84,4.88s7.69-2.47,7.69-5.87v-.1c0-3.2-1.72-5.03-8.98-6.56-7.94-1.72-11.59-4.29-11.59-9.96v-.1c0-5.42,4.78-9.43,11.34-9.43,5.03,0,8.63,1.43,12.13,4.24l-2.27,3.01c-3.2-2.61-6.41-3.75-9.96-3.75-4.49,0-7.35,2.47-7.35,5.57v.1c0,3.26,1.77,5.08,9.37,6.71,7.69,1.68,11.24,4.49,11.24,9.77v.09c0,5.92-4.94,9.77-11.79,9.77-5.47,0-9.96-1.82-14.11-5.53l.02.03h0Z"/>
    <path class="st0" d="M278.88,194.13h-11.64v-3.6h27.18v3.6h-11.64v30.92h-3.9v-30.92h.01Z"/>
  </g>
</svg>