<?xml version="1.0" encoding="UTF-8"?>
<svg id="_レイヤー_1" xmlns="http://www.w3.org/2000/svg" version="1.1" viewBox="0 0 538.58 235.89">
  <!-- Generator: Adobe Illustrator 29.7.1, SVG Export Plug-In . SVG Version: 2.1.1 Build 8)  -->
  <defs>
    <style>
      .st0 {
        fill: #008db8;
      }

      .st1 {
        fill: #1c91b9;
      }

      .st2 {
        fill: #bba765;
        font-family: Gotham-Light, Gotham;
        font-size: 54px;
        font-weight: 300;
      }
    </style>
  </defs>
  <g>
    <path class="st1" d="M114.97,49.45v-.19c0-19.12,14.75-35.13,35.62-35.13s35.43,15.82,35.43,34.95v.19c0,19.12-14.75,35.13-35.62,35.13s-35.43-15.83-35.43-34.95ZM173.5,49.45v-.19c0-13.21-9.61-24.08-23.11-24.08s-22.91,10.68-22.91,23.88v.19c0,13.21,9.61,24.08,23.11,24.08s22.91-10.68,22.91-23.88Z"/>
    <path class="st1" d="M222.62,14.8h11.07l29.9,68.43h-12.62l-6.89-16.41h-32.13l-6.99,16.41h-12.23l29.89-68.43ZM239.7,56.24l-11.75-27.18-11.65,27.18h23.4Z"/>
    <path class="st1" d="M270.67,73.33l7.19-8.54c6.51,5.63,13.11,8.83,21.45,8.83,7.38,0,12.04-3.49,12.04-8.54v-.19c0-4.85-2.71-7.48-15.34-10.39-14.46-3.49-22.62-7.77-22.62-20.29v-.19c0-11.65,9.71-19.7,23.2-19.7,9.9,0,17.77,3,24.65,8.54l-6.41,9.02c-6.12-4.56-12.23-6.99-18.45-6.99-6.99,0-11.07,3.59-11.07,8.06v.19c0,5.24,3.1,7.58,16.21,10.68,14.36,3.49,21.74,8.64,21.74,19.9v.19c0,12.72-10,20.29-24.27,20.29-10.39,0-20.19-3.59-28.35-10.87h.03Z"/>
    <path class="st1" d="M341.92,15.28h11.94v67.95h-11.94V15.28Z"/>
    <path class="st1" d="M371.33,73.33l7.19-8.54c6.51,5.63,13.11,8.83,21.45,8.83,7.38,0,12.04-3.49,12.04-8.54v-.19c0-4.85-2.72-7.48-15.34-10.39-14.46-3.49-22.62-7.77-22.62-20.29v-.19c0-11.65,9.71-19.7,23.2-19.7,9.9,0,17.77,3,24.66,8.54l-6.41,9.02c-6.12-4.56-12.23-6.99-18.45-6.99-6.99,0-11.07,3.59-11.07,8.06v.19c0,5.24,3.1,7.58,16.21,10.68,14.36,3.49,21.74,8.64,21.74,19.9v.19c0,12.72-10,20.29-24.26,20.29-10.39,0-20.19-3.59-28.35-10.87h.01Z"/>
  </g>
  <g>
    <path class="st0" d="M15.48,146.4l2.54-3c3.78,3.42,7.4,5.13,12.43,5.13s8.08-2.59,8.08-6.16v-.1c0-3.37-1.81-5.28-9.42-6.89-8.34-1.81-12.17-4.5-12.17-10.46v-.1c0-5.7,5.02-9.89,11.91-9.89,5.28,0,9.06,1.5,12.74,4.45l-2.38,3.16c-3.37-2.74-6.73-3.94-10.46-3.94-4.71,0-7.72,2.59-7.72,5.85v.1c0,3.42,1.86,5.33,9.84,7.04,8.08,1.76,11.81,4.71,11.81,10.25v.1c0,6.21-5.18,10.25-12.38,10.25-5.75,0-10.46-1.92-14.81-5.8Z"/>
    <path class="st0" d="M63.01,119.22h-12.22v-3.78h28.53v3.78h-12.22v32.47h-4.09v-32.47Z"/>
    <path class="st0" d="M89.36,115.44h15.59c4.45,0,8.03,1.35,10.3,3.62,1.76,1.76,2.8,4.3,2.8,7.15v.1c0,6.01-4.14,9.53-9.84,10.56l11.13,14.81h-5.02l-10.51-14.09h-10.36v14.09h-4.09v-36.25ZM104.58,133.92c5.44,0,9.32-2.8,9.32-7.46v-.1c0-4.45-3.42-7.15-9.27-7.15h-11.18v14.71h11.13Z"/>
    <path class="st0" d="M129.38,115.44h26.2v3.73h-22.11v12.38h19.78v3.73h-19.78v12.69h22.37v3.73h-26.46v-36.25Z"/>
    <path class="st0" d="M166.66,115.44h26.2v3.73h-22.11v12.38h19.78v3.73h-19.78v12.69h22.37v3.73h-26.46v-36.25Z"/>
    <path class="st0" d="M213.36,119.22h-12.22v-3.78h28.53v3.78h-12.22v32.47h-4.09v-32.47Z"/>
    <path class="st0" d="M257.82,115.44h4.09v16.1h20.92v-16.1h4.09v36.25h-4.09v-16.31h-20.92v16.31h-4.09v-36.25Z"/>
    <path class="st0" d="M313.17,115.18h3.83l16.52,36.5h-4.4l-4.25-9.58h-19.73l-4.3,9.58h-4.19l16.52-36.5ZM323.27,138.43l-8.23-18.49-8.28,18.49h16.52Z"/>
    <path class="st0" d="M343.25,115.44h15.59c4.45,0,8.03,1.35,10.31,3.62,1.76,1.76,2.79,4.3,2.79,7.15v.1c0,6.01-4.14,9.53-9.84,10.56l11.13,14.81h-5.02l-10.51-14.09h-10.35v14.09h-4.09v-36.25ZM358.47,133.92c5.44,0,9.32-2.8,9.32-7.46v-.1c0-4.45-3.42-7.15-9.27-7.15h-11.18v14.71h11.13Z"/>
    <path class="st0" d="M380.16,115.44h4.56l12.89,31.22,12.94-31.22h4.4l-15.59,36.51h-3.62l-15.59-36.51Z"/>
    <path class="st0" d="M424.68,115.44h26.2v3.73h-22.11v12.38h19.78v3.73h-19.78v12.69h22.37v3.73h-26.46v-36.25Z"/>
    <path class="st0" d="M459.58,146.4l2.54-3c3.78,3.42,7.4,5.13,12.43,5.13s8.08-2.59,8.08-6.16v-.1c0-3.37-1.81-5.28-9.42-6.89-8.34-1.81-12.17-4.5-12.17-10.46v-.1c0-5.7,5.02-9.89,11.91-9.89,5.28,0,9.06,1.5,12.74,4.45l-2.38,3.16c-3.37-2.74-6.73-3.94-10.46-3.94-4.71,0-7.72,2.59-7.72,5.85v.1c0,3.42,1.86,5.33,9.84,7.04,8.08,1.76,11.81,4.71,11.81,10.25v.1c0,6.21-5.18,10.25-12.38,10.25-5.75,0-10.46-1.92-14.81-5.8Z"/>
    <path class="st0" d="M507.11,119.22h-12.22v-3.78h28.53v3.78h-12.22v32.47h-4.09v-32.47Z"/>
  </g>
  <text class="st2" transform="translate(202.08 223.09)"><tspan x="0" y="0">2025</tspan></text>
</svg>