<?xml version="1.0" encoding="UTF-8"?>
<svg id="_レイヤー_1" xmlns="http://www.w3.org/2000/svg" version="1.1" viewBox="0 0 329.52 235.89">
  <!-- Generator: Adobe Illustrator 29.6.1, SVG Export Plug-In . SVG Version: 2.1.1 Build 9)  -->
  <defs>
    <style>
      .st0 {
        fill: #008eb8;
      }
    </style>
  </defs>
  <g>
    <path class="st0" d="M20.78,41.35v-.18c0-17.5,13.51-32.17,32.61-32.17s32.44,14.49,32.44,32v.18c0,17.5-13.51,32.17-32.61,32.17s-32.44-14.49-32.44-32ZM74.37,41.35v-.18c0-12.09-8.8-22.04-21.15-22.04s-20.98,9.78-20.98,21.87v.18c0,12.09,8.8,22.04,21.15,22.04s20.98-9.78,20.98-21.87Z"/>
    <path class="st0" d="M119.34,9.62h10.13l27.38,62.65h-11.56l-6.31-15.02h-29.42l-6.4,15.02h-11.2l27.38-62.65ZM134.98,47.57l-10.76-24.89-10.67,24.89h21.42Z"/>
    <path class="st0" d="M163.33,63.21l6.58-7.82c5.96,5.16,12,8.08,19.64,8.08,6.76,0,11.02-3.2,11.02-7.82v-.18c0-4.44-2.48-6.85-14.04-9.51-13.24-3.2-20.71-7.11-20.71-18.57v-.18c0-10.67,8.89-18.04,21.24-18.04,9.06,0,16.27,2.75,22.57,7.82l-5.87,8.26c-5.6-4.18-11.2-6.4-16.89-6.4-6.4,0-10.13,3.29-10.13,7.38v.18c0,4.8,2.84,6.94,14.84,9.78,13.15,3.2,19.91,7.91,19.91,18.22v.18c0,11.65-9.15,18.57-22.22,18.57-9.51,0-18.48-3.29-25.95-9.95h0Z"/>
    <path class="st0" d="M228.57,10.07h10.93v62.21h-10.93V10.07Z"/>
    <path class="st0" d="M255.5,63.21l6.58-7.82c5.96,5.16,12,8.08,19.64,8.08,6.76,0,11.02-3.2,11.02-7.82v-.18c0-4.44-2.49-6.85-14.04-9.51-13.24-3.2-20.71-7.11-20.71-18.57v-.18c0-10.67,8.89-18.04,21.24-18.04,9.06,0,16.27,2.75,22.58,7.82l-5.87,8.26c-5.6-4.18-11.2-6.4-16.89-6.4-6.4,0-10.13,3.29-10.13,7.38v.18c0,4.8,2.84,6.94,14.84,9.78,13.15,3.2,19.91,7.91,19.91,18.22v.18c0,11.65-9.15,18.57-22.21,18.57-9.51,0-18.48-3.29-25.95-9.95h0Z"/>
  </g>
  <g>
    <path class="st0" d="M55.93,145.34l2.63-3.12c3.92,3.55,7.68,5.32,12.9,5.32s8.38-2.69,8.38-6.39v-.11c0-3.49-1.88-5.48-9.78-7.15-8.65-1.88-12.63-4.68-12.63-10.86v-.11c0-5.91,5.21-10.27,12.36-10.27,5.48,0,9.4,1.56,13.22,4.62l-2.47,3.28c-3.49-2.85-6.98-4.09-10.86-4.09-4.89,0-8.01,2.69-8.01,6.07v.11c0,3.55,1.93,5.54,10.21,7.31,8.38,1.83,12.26,4.89,12.26,10.64v.1c0,6.45-5.38,10.64-12.85,10.64-5.97,0-10.86-1.99-15.36-6.02v.03h0Z"/>
    <path class="st0" d="M105.25,117.13h-12.69v-3.92h29.61v3.92h-12.69v33.69h-4.25v-33.69h.01Z"/>
    <path class="st0" d="M132.61,113.2h16.18c4.62,0,8.33,1.4,10.7,3.76,1.83,1.83,2.9,4.46,2.9,7.42v.1c0,6.24-4.3,9.89-10.21,10.96l11.56,15.36h-5.21l-10.91-14.62h-10.74v14.62h-4.25v-37.62h-.01ZM148.41,132.38c5.64,0,9.67-2.9,9.67-7.74v-.1c0-4.62-3.55-7.41-9.63-7.41h-11.6v15.26h11.56Z"/>
    <path class="st0" d="M174.14,113.2h27.19v3.88h-22.95v12.85h20.53v3.86h-20.53v13.16h23.22v3.88h-27.46v-37.62h0Z"/>
    <path class="st0" d="M212.83,113.2h27.19v3.88h-22.95v12.85h20.53v3.86h-20.53v13.16h23.22v3.88h-27.46v-37.62h0Z"/>
    <path class="st0" d="M261.3,117.13h-12.69v-3.92h29.61v3.92h-12.69v33.69h-4.25v-33.69h.01,0Z"/>
    <path class="st0" d="M30.49,187.39h4.25v16.71h21.71v-16.71h4.25v37.62h-4.25v-16.92h-21.71v16.92h-4.25v-37.62Z"/>
    <path class="st0" d="M87.94,187.13h3.98l17.14,37.88h-4.56l-4.41-9.94h-20.47l-4.46,9.94h-4.35l17.14-37.88h0ZM98.41,211.25l-8.54-19.18-8.6,19.18h17.14Z"/>
    <path class="st0" d="M119.15,187.39h16.18c4.62,0,8.33,1.4,10.7,3.76,1.83,1.83,2.9,4.46,2.9,7.42v.1c0,6.24-4.3,9.89-10.21,10.96l11.56,15.36h-5.21l-10.91-14.62h-10.74v14.62h-4.25v-37.62h-.01ZM134.94,206.59c5.64,0,9.67-2.9,9.67-7.74v-.1c0-4.62-3.55-7.41-9.63-7.41h-11.6v15.26h11.56Z"/>
    <path class="st0" d="M157.46,187.39h4.73l13.38,32.4,13.43-32.4h4.56l-16.18,37.89h-3.76l-16.18-37.89h.01Z"/>
    <path class="st0" d="M203.67,187.39h27.19v3.88h-22.95v12.85h20.53v3.86h-20.53v13.16h23.22v3.88h-27.46v-37.62h0Z"/>
    <path class="st0" d="M239.88,219.53l2.63-3.12c3.92,3.55,7.68,5.32,12.9,5.32s8.38-2.69,8.38-6.39v-.11c0-3.49-1.88-5.48-9.78-7.15-8.65-1.88-12.63-4.68-12.63-10.86v-.11c0-5.91,5.21-10.27,12.36-10.27,5.48,0,9.4,1.56,13.22,4.62l-2.47,3.28c-3.49-2.85-6.98-4.09-10.86-4.09-4.89,0-8.01,2.69-8.01,6.07v.11c0,3.55,1.93,5.54,10.21,7.31,8.38,1.83,12.25,4.89,12.25,10.64v.1c0,6.45-5.38,10.64-12.85,10.64-5.97,0-10.86-1.99-15.38-6.02l.02.03h0Z"/>
    <path class="st0" d="M289.21,191.32h-12.69v-3.92h29.61v3.92h-12.69v33.69h-4.25v-33.69h.01Z"/>
  </g>
</svg>