<?xml version="1.0" encoding="UTF-8"?>
<svg id="_レイヤー_1" xmlns="http://www.w3.org/2000/svg" version="1.1" viewBox="0 0 198.52 185.89">
  <!-- Generator: Adobe Illustrator 29.6.1, SVG Export Plug-In . SVG Version: 2.1.1 Build 9)  -->
  <defs>
    <style>
      .st0 {
        fill: #9da6a2;
      }

      .st1 {
        fill: #fff;
      }

      .st2 {
        fill: #6b7672;
      }

      .st3 {
        fill: #bba765;
      }
    </style>
  </defs>
  <g>
    <path class="st2" d="M10.48,37.34c-1.67,0-2.53-1.26-2.53-2.53s.86-2.47,2.47-2.47h.06l12.92.12c-.75-1.43-1.67-2.81-2.64-4.13-.34-.46-.52-.92-.52-1.32,0-1.21,1.26-2.01,2.58-2.01.52,0,1.09.12,1.55.46.34.23,4.42,4.76,4.42,6.72v.34l3.62.06,3.1-.06c1.03-2.01,2.12-4.31,2.7-6.14.4-1.15,1.32-1.61,2.3-1.61,1.43,0,3.04,1.09,3.04,2.53,0,.86-1.55,3.44-2.64,5.17l13.15-.12h.06c1.67,0,2.53,1.21,2.53,2.47s-.86,2.53-2.58,2.53H10.48ZM14.5,24.03c-1.67,0-2.53-1.26-2.53-2.53s.86-2.47,2.53-2.47h14.92l-.06-3.67c0-1.66,1.43-2.47,2.81-2.47,1.49,0,2.93.86,2.93,2.47l-.06,3.67h15.04c1.72,0,2.58,1.26,2.58,2.47s-.86,2.53-2.58,2.53H14.5ZM41.83,63c-2.81.06-5.8.11-8.67.11-3.39,0-6.72-.06-9.82-.17-4.02-.17-6.14-2.35-6.31-5.28-.11-1.89-.17-3.73-.17-5.63s.06-3.79.17-5.74c.11-2.41,1.78-4.94,6.2-5.05,2.53-.06,5.34-.06,8.21-.06,3.5,0,7.18,0,10.68.11,3.39.12,5.8,2.41,5.91,4.65.11,1.95.17,3.9.17,5.86s-.06,3.85-.17,5.86c-.12,2.76-2.53,5.22-6.2,5.34ZM42.86,49.97c0-2.81,0-4.31-2.81-4.36-2.98-.06-6.37-.12-9.59-.12-1.95,0-3.9,0-5.63.06-2.81.11-2.81,1.72-2.81,4.36l20.84.06ZM22.02,53.93c0,.8,0,1.55.06,2.35.06,2.35,1.09,2.41,11.48,2.41,2.24,0,4.42-.06,6.54-.11,2.76-.12,2.76-1.26,2.76-4.59l-20.84-.06Z"/>
    <path class="st2" d="M87.06,24.31c-2.99-3.67,2.64-6.77,4.94-3.5,2.47,3.5,5.05,8.61,6.72,13.37,3.1-2.18,6.37-4.25,10.1-6.31,3.9-2.18,6.89,3.33,2.47,5.57-5.86,2.98-11.77,6.31-16.3,10.16-5.68,4.82-5.86,9.13-1.38,11.31,4.02,2.01,12.23.52,15.67-.75,4.82-1.84,6.54,4.76,1.43,6.2-4.53,1.26-14.12,2.41-19.8-.46-8.27-4.19-7.92-13.49,1.38-20.89.57-.46,1.09-.92,1.67-1.32-1.49-4.53-4.25-10.16-6.89-13.37Z"/>
    <path class="st2" d="M186.25,38.03l-17.39-.23c5.68,7.06,12.69,12.05,19.52,15.61,1.15.63,1.66,1.55,1.66,2.47,0,1.61-1.49,3.21-3.33,3.21-2.87,0-13.03-8.32-19.69-16.59l.11,19.23c0,1.55-1.43,2.3-2.87,2.3s-2.87-.75-2.87-2.3l.17-18.71c-4.76,6.2-10.68,11.65-17.91,16.02-.63.4-1.26.57-1.89.57-1.66,0-2.98-1.38-2.98-2.87,0-.92.52-1.89,1.78-2.53,7.4-3.9,13.55-9.24,18.89-16.42l-16.88.23h-.06c-1.67,0-2.47-1.26-2.47-2.58s.86-2.64,2.53-2.64l19.06.12-.23-16.82v-.06c0-1.61,1.43-2.41,2.87-2.41s2.93.8,2.93,2.41v.06l-.23,16.82,19.29-.12c1.55,0,2.35,1.32,2.35,2.64s-.75,2.58-2.3,2.58h-.06ZM152.21,29.42c-1.38-2.47-4.02-4.99-5.28-5.85-.8-.52-1.09-1.21-1.09-1.89,0-1.44,1.32-2.81,2.99-2.81,2.76,0,7.81,6.26,8.32,7.12.34.57.46,1.15.46,1.72,0,1.78-1.55,3.21-3.1,3.21-.86,0-1.72-.46-2.3-1.49ZM173.63,30.97c-1.49,0-2.76-1.21-2.76-2.58,0-.69.29-1.38.98-2.01,2.07-1.95,4.76-5.34,5.97-7.35.52-.92,1.32-1.26,2.12-1.26,1.61,0,3.27,1.49,3.27,3.21,0,.57-.23,1.15-.63,1.72-5.68,7.35-7.75,8.27-8.95,8.27Z"/>
  </g>
  <g id="layer1">
    <path class="st3" d="M187.47,175.89h-13.57s-17.88-27.4-44.63-34.19c19.75-2.21,38.5,13.02,49.15,23.87-.64-2.65-1.43-5.58-2.34-8.47-.72-2.32-1.53-4.61-2.32-6.75-.82-2.13-1.6-4.11-2.35-5.77-.71-1.68-1.37-3.05-1.83-4.01-.04-.09-.08-.17-.12-.25-.34-.71-.05-1.56.64-1.92.71-.37,1.59-.1,1.97.61.04.07.08.15.12.23.51.96,1.26,2.33,2.07,4.02.84,1.67,1.74,3.66,2.68,5.81.92,2.15,1.85,4.47,2.71,6.82,1.14,3.13,2.15,6.29,2.97,9.15-.01-.34-.02-.66-.03-1.01-.09-1.37-.18-2.82-.27-4.31-.09-1.5-.28-3.03-.42-4.6-.13-1.57-.38-3.15-.57-4.73-.43-3.17-.99-6.31-1.61-9.24-.63-2.92-1.32-5.63-2.01-7.91-.69-2.28-1.34-4.16-1.85-5.43-.08-.19-.18-.44-.29-.7-.3-.71,0-1.53.69-1.87.73-.37,1.63-.06,1.97.69.13.28.26.55.34.75.59,1.33,1.33,3.26,2.14,5.6.79,2.34,1.61,5.1,2.36,8.09.75,2.99,1.43,6.2,1.99,9.43.25,1.62.57,3.23.76,4.84.2,1.6.44,3.17.59,4.7.15,1.53.3,3.01.44,4.41.1,1.41.19,2.73.27,3.96.2,2.45.2,4.5.27,5.94.05,1.43.08,2.25.08,2.25h0ZM124.42,95.66c2.32-.29,4.66-1.2,5.22-2.3.57-1.08-.84-1.92-3.16-1.64-2.32.28-4.66,1.59-5.23,2.67-.57,1.09.86,1.54,3.17,1.26h0ZM126.61,97.48c-.57,1.09.84,1.84,3.13,1.92,2.28.07,4.57-.57,5.14-1.66.57-1.08-.8-2.2-3.08-2.27-2.29-.08-4.63.93-5.19,2.01ZM139.17,96.11c2.22.41,4.43.03,5-1.05.57-1.08-.73-2.47-2.95-2.88-2.22-.41-4.52.31-5.09,1.39-.57,1.09.81,2.13,3.03,2.54h0ZM141.19,98.91c-.57,1.09.75,2.4,2.87,3.14,2.12.73,4.24.61,4.8-.48.57-1.08-.62-2.72-2.75-3.45-2.12-.74-4.36-.29-4.92.8h0ZM152.83,100.83c1.99,1.04,3.97,1.15,4.54.06.57-1.08-.5-2.96-2.48-3.99-1.98-1.04-4.12-.84-4.69.24-.57,1.09.65,2.65,2.64,3.69h0ZM154.49,104.5c-.57,1.09.54,2.89,2.34,4.22,1.82,1.32,3.64,1.65,4.21.56.56-1.08-.34-3.18-2.15-4.5-1.81-1.32-3.84-1.37-4.4-.28h0ZM168.32,110.39c.57-1.08-.15-3.38-1.76-4.97-1.61-1.59-3.48-1.86-4.05-.78-.57,1.09.39,3.12,1.99,4.71,1.61,1.59,3.25,2.13,3.82,1.04ZM165.61,113.8c-.57,1.09.21,3.33,1.57,5.17,1.37,1.83,2.8,2.57,3.37,1.48.57-1.08.06-3.58-1.31-5.41-1.36-1.84-3.07-2.32-3.63-1.24h0ZM176.13,123.09c.56-1.08.3-3.75-.79-5.82-1.09-2.07-2.58-2.75-3.15-1.66-.57,1.09,0,3.53,1.09,5.6,1.09,2.06,2.28,2.97,2.85,1.89h0ZM114.83,116.7c2.26-.6,4.45-1.82,4.86-2.98.42-1.15-1.09-1.79-3.35-1.2-2.26.59-4.41,2.2-4.83,3.35-.42,1.15,1.06,1.42,3.32.83h0ZM122.12,115.51c-2.28.23-4.46,1.54-4.87,2.69-.42,1.15,1.08,1.71,3.36,1.48,2.27-.24,4.46-1.18,4.87-2.34.42-1.15-1.08-2.08-3.36-1.84h0ZM134.32,113.45c.42-1.15-1.05-2.35-3.31-2.46-2.25-.11-4.44.91-4.86,2.06-.42,1.15,1.09,2,3.35,2.11,2.26.11,4.4-.56,4.82-1.72h0ZM131.88,117.67c-.42,1.16,1.06,2.28,3.26,2.72,2.2.44,4.28.04,4.69-1.12.42-1.15-.98-2.61-3.18-3.05-2.2-.45-4.35.3-4.77,1.45h0ZM148.17,117.46c.42-1.15-.89-2.86-2.99-3.62-2.1-.76-4.2-.28-4.62.87-.42,1.16,1,2.54,3.11,3.31,2.11.76,4.09.6,4.5-.55h0ZM152.95,125.29c.41-1.15-.76-3.1-2.74-4.17-1.97-1.07-3.99-.84-4.4.31-.42,1.15.92,2.8,2.89,3.87,1.98,1.07,3.83,1.15,4.25,0h0ZM160.3,125.41c.41-1.15-.61-3.33-2.41-4.69-1.81-1.36-3.7-1.38-4.11-.23-.42,1.15.8,3.04,2.6,4.4,1.81,1.36,3.51,1.67,3.92.52h0ZM158.07,129.15c-.42,1.15.65,3.27,2.25,4.91,1.6,1.63,3.11,2.17,3.53,1.01.42-1.15-.42-3.55-2.02-5.19-1.6-1.64-3.35-1.89-3.76-.74ZM164.84,130.06c-.42,1.16.47,3.49,1.83,5.4,1.36,1.9,2.65,2.64,3.08,1.49.41-1.15-.21-3.76-1.57-5.66-1.36-1.9-2.92-2.37-3.34-1.22h0ZM112.81,132.61c-1.92,1.33-3.39,3.58-3.39,4.8,0,1.23,1.48.97,3.4-.36,1.91-1.33,3.56-3.23,3.55-4.46,0-1.22-1.64-1.31-3.56.02h0ZM119.26,133.44c-2.06,1-3.66,2.98-3.66,4.2,0,1.23,1.6,1.24,3.67.24,2.05-1,3.78-2.63,3.78-3.86,0-1.22-1.73-1.58-3.79-.58h0ZM130.02,127.32c0-1.22-1.79-1.85-3.95-1.18-2.16.67-3.86,2.38-3.86,3.6,0,1.23,1.71,1.51,3.87.84,2.16-.67,3.94-2.03,3.94-3.26h0ZM133.17,133.56c2.22-.34,4.03-1.43,4.03-2.66,0-1.22-1.82-2.12-4.04-1.78-2.22.33-3.99,1.78-3.98,3,0,1.23,1.78,1.78,4,1.44h0ZM136.32,126.37c0,1.23,1.81,2.04,4.05,2.04,2.24,0,4.05-.83,4.04-2.06,0-1.22-1.82-2.39-4.05-2.38-2.24,0-4.04,1.17-4.04,2.4h0ZM147.59,133.52c2.22.32,3.99-.23,3.99-1.46,0-1.22-1.78-2.66-4-2.98-2.22-.33-4.04.57-4.03,1.8,0,1.23,1.82,2.31,4.04,2.64h0Z"/>
  </g>
  <g>
    <circle class="st2" cx="52.03" cy="133.64" r="41.19"/>
    <circle class="st1" cx="52.03" cy="133.64" r="16.47"/>
    <circle class="st0" cx="52.03" cy="133.64" r="1.98"/>
  </g>
</svg>