<?xml version="1.0" encoding="UTF-8"?>
<svg id="_レイヤー_1" xmlns="http://www.w3.org/2000/svg" version="1.1" viewBox="0 0 198.52 185.89">
  <!-- Generator: Adobe Illustrator 29.7.1, SVG Export Plug-In . SVG Version: 2.1.1 Build 8)  -->
  <defs>
    <style>
      .st0 {
        fill: #9da6a2;
      }

      .st1 {
        fill: #fff;
      }

      .st2 {
        fill: #6b7672;
      }

      .st3 {
        fill: #606060;
      }

      .st4 {
        fill: #bba765;
      }
    </style>
  </defs>
  <g id="layer1">
    <path class="st4" d="M187.47,174.47h-13.57s-17.88-27.4-44.63-34.19c19.75-2.21,38.5,13.02,49.15,23.87-.64-2.65-1.43-5.58-2.34-8.47-.72-2.32-1.53-4.61-2.32-6.75-.82-2.13-1.6-4.11-2.35-5.77-.71-1.68-1.37-3.05-1.83-4.01-.04-.09-.08-.17-.12-.25-.34-.71-.05-1.56.64-1.92.71-.37,1.59-.1,1.97.61.04.07.08.15.12.23.51.96,1.26,2.33,2.07,4.02.84,1.67,1.74,3.66,2.68,5.81.92,2.15,1.85,4.47,2.71,6.82,1.14,3.13,2.15,6.29,2.97,9.15,0-.34-.02-.66-.03-1.01-.09-1.37-.18-2.82-.27-4.31-.09-1.5-.28-3.03-.42-4.6-.13-1.57-.38-3.15-.57-4.73-.43-3.17-.99-6.31-1.61-9.24-.63-2.92-1.32-5.63-2.01-7.91-.69-2.28-1.34-4.16-1.85-5.43-.08-.19-.18-.44-.29-.7-.3-.71,0-1.53.69-1.87.73-.37,1.63-.06,1.97.69.13.28.26.55.34.75.59,1.33,1.33,3.26,2.14,5.6.79,2.34,1.61,5.1,2.36,8.09.75,2.99,1.43,6.2,1.99,9.43.25,1.62.57,3.23.76,4.84.2,1.6.44,3.17.59,4.7s.3,3.01.44,4.41c.1,1.41.19,2.73.27,3.96.2,2.45.2,4.5.27,5.94.05,1.43.08,2.25.08,2.25h0ZM124.42,94.24c2.32-.29,4.66-1.2,5.22-2.3.57-1.08-.84-1.92-3.16-1.64-2.32.28-4.66,1.59-5.23,2.67-.57,1.09.86,1.54,3.17,1.26h0ZM126.61,96.06c-.57,1.09.84,1.84,3.13,1.92,2.28.07,4.57-.57,5.14-1.66.57-1.08-.8-2.2-3.08-2.27-2.29-.08-4.63.93-5.19,2.01ZM139.17,94.69c2.22.41,4.43.03,5-1.05s-.73-2.47-2.95-2.88c-2.22-.41-4.52.31-5.09,1.39-.57,1.09.81,2.13,3.03,2.54h0ZM141.19,97.49c-.57,1.09.75,2.4,2.87,3.14,2.12.73,4.24.61,4.8-.48.57-1.08-.62-2.72-2.75-3.45-2.12-.74-4.36-.29-4.92.8h0ZM152.83,99.41c1.99,1.04,3.97,1.15,4.54.06.57-1.08-.5-2.96-2.48-3.99-1.98-1.04-4.12-.84-4.69.24-.57,1.09.65,2.65,2.64,3.69h0ZM154.49,103.08c-.57,1.09.54,2.89,2.34,4.22,1.82,1.32,3.64,1.65,4.21.56.56-1.08-.34-3.18-2.15-4.5s-3.84-1.37-4.4-.28h0ZM168.32,108.97c.57-1.08-.15-3.38-1.76-4.97-1.61-1.59-3.48-1.86-4.05-.78-.57,1.09.39,3.12,1.99,4.71,1.61,1.59,3.25,2.13,3.82,1.04h0ZM165.61,112.38c-.57,1.09.21,3.33,1.57,5.17,1.37,1.83,2.8,2.57,3.37,1.48.57-1.08.06-3.58-1.31-5.41-1.36-1.84-3.07-2.32-3.63-1.24h0ZM176.13,121.67c.56-1.08.3-3.75-.79-5.82s-2.58-2.75-3.15-1.66c-.57,1.09,0,3.53,1.09,5.6,1.09,2.06,2.28,2.97,2.85,1.89h0ZM114.83,115.28c2.26-.6,4.45-1.82,4.86-2.98.42-1.15-1.09-1.79-3.35-1.2-2.26.59-4.41,2.2-4.83,3.35-.42,1.15,1.06,1.42,3.32.83h0ZM122.12,114.09c-2.28.23-4.46,1.54-4.87,2.69-.42,1.15,1.08,1.71,3.36,1.48,2.27-.24,4.46-1.18,4.87-2.34.42-1.15-1.08-2.08-3.36-1.84h0ZM134.32,112.03c.42-1.15-1.05-2.35-3.31-2.46-2.25-.11-4.44.91-4.86,2.06-.42,1.15,1.09,2,3.35,2.11,2.26.11,4.4-.56,4.82-1.72h0ZM131.88,116.25c-.42,1.16,1.06,2.28,3.26,2.72s4.28.04,4.69-1.12c.42-1.15-.98-2.61-3.18-3.05-2.2-.45-4.35.3-4.77,1.45h0ZM148.17,116.04c.42-1.15-.89-2.86-2.99-3.62s-4.2-.28-4.62.87c-.42,1.16,1,2.54,3.11,3.31,2.11.76,4.09.6,4.5-.55h0ZM152.95,123.87c.41-1.15-.76-3.1-2.74-4.17-1.97-1.07-3.99-.84-4.4.31-.42,1.15.92,2.8,2.89,3.87,1.98,1.07,3.83,1.15,4.25,0h0ZM160.3,123.99c.41-1.15-.61-3.33-2.41-4.69-1.81-1.36-3.7-1.38-4.11-.23-.42,1.15.8,3.04,2.6,4.4,1.81,1.36,3.51,1.67,3.92.52h0ZM158.07,127.73c-.42,1.15.65,3.27,2.25,4.91,1.6,1.63,3.11,2.17,3.53,1.01.42-1.15-.42-3.55-2.02-5.19s-3.35-1.89-3.76-.74h0ZM164.84,128.64c-.42,1.16.47,3.49,1.83,5.4,1.36,1.9,2.65,2.64,3.08,1.49.41-1.15-.21-3.76-1.57-5.66-1.36-1.9-2.92-2.37-3.34-1.22h0ZM112.81,131.19c-1.92,1.33-3.39,3.58-3.39,4.8s1.48.97,3.4-.36c1.91-1.33,3.56-3.23,3.55-4.46,0-1.22-1.64-1.31-3.56.02h0ZM119.26,132.02c-2.06,1-3.66,2.98-3.66,4.2s1.6,1.24,3.67.24c2.05-1,3.78-2.63,3.78-3.86s-1.73-1.58-3.79-.58h0ZM130.02,125.9c0-1.22-1.79-1.85-3.95-1.18s-3.86,2.38-3.86,3.6,1.71,1.51,3.87.84c2.16-.67,3.94-2.03,3.94-3.26h0ZM133.17,132.14c2.22-.34,4.03-1.43,4.03-2.66s-1.82-2.12-4.04-1.78c-2.22.33-3.99,1.78-3.98,3,0,1.23,1.78,1.78,4,1.44h-.01ZM136.32,124.95c0,1.23,1.81,2.04,4.05,2.04s4.05-.83,4.04-2.06c0-1.22-1.82-2.39-4.05-2.38-2.24,0-4.04,1.17-4.04,2.4h0ZM147.59,132.1c2.22.32,3.99-.23,3.99-1.46s-1.78-2.66-4-2.98c-2.22-.33-4.04.57-4.03,1.8,0,1.23,1.82,2.31,4.04,2.64h0Z"/>
  </g>
  <g>
    <circle class="st2" cx="52.03" cy="132.22" r="41.19"/>
    <circle class="st1" cx="52.03" cy="132.22" r="16.47"/>
    <circle class="st0" cx="52.03" cy="132.22" r="1.98"/>
  </g>
  <g>
    <path class="st3" d="M49.9,36.29c1.24-1.85,2.92-4.04,3.82-4.04,1.18,0,5.45,3.48,5.45,4.94,0,.79-.96,1.35-3.26,1.35H9.63c-.73,0-1.24-.22-1.24-1.12,0-.84.51-1.12,1.24-1.12h28.19c-.17-.28-.11-.73.11-1.24,1.68-2.86,3.03-5.9,3.82-8.99.17-.45.51-.84,1.18-.67,1.97.51,5.05,2.19,5.05,3.2-.06.79-.84,1.12-2.53,1.07-1.4,2.08-3.37,4.66-5.84,6.63h10.28ZM13.9,24.89c-.73,0-1.24-.22-1.24-1.12,0-.84.51-1.12,1.24-1.12h17.41c.06-2.02,0-4.32-.17-5.9-.06-.56.28-.84.79-.84.95,0,6.51.17,6.51,1.68,0,1.18-1.23,1.63-2.98,2.02v3.03h10.73c1.18-1.74,2.75-3.82,3.59-3.82,1.12,0,5.28,3.37,5.28,4.77,0,.79-1.01,1.29-3.14,1.29H13.9ZM43.27,43.59c.84-1.12,1.97-2.36,2.58-2.36,1.18,0,4.6,2.47,4.6,3.71,0,.73-1.01,1.24-2.02,1.68-.17,4.77.06,15.61.11,18.03,0,1.74-.95,2.13-2.58,2.13-1.29,0-1.74-1.01-1.74-1.91v-1.57h-19.88v1.8c0,1.24-.9,1.74-2.64,1.74-1.07,0-1.63-.51-1.63-1.52.06-4.21.45-17.46-.17-23.08-.06-.39.34-.79.79-.73.9.06,3.65,1.07,5.05,2.08h17.52ZM24.57,26.18c3.03,1.52,5.95,4.1,5.5,6.91-.23,1.57-1.4,2.47-3.09,2.19-1.52-.22-1.91-1.68-2.53-3.59-.39-1.35-.95-2.75-1.52-3.99-.56-1.18.17-2.19,1.63-1.52ZM44.34,52.07c.06-2.53.06-4.83,0-6.23h-19.2c-.23.06-.45.11-.73.17-.06,1.18-.11,3.93-.11,6.06h20.05ZM44.28,61.06l.06-6.74h-20.05v.28l.06,6.46h19.94Z"/>
    <path class="st3" d="M89.38,20.18c0-.77,1.37-1.29,2.36-1.29,1.32,0,3.7.05,5.13,1.11,1.17.86,1.44,1.75,1.21,3.63-.2,1.67-2.29,9.29-2.19,12.32.09,2.53.77,3.27,2.74,3.15,1.42-.08,3.63-1.63,6.02-1.63s4.05,1.1,4.16,2.68c.13,1.94-1.91,2.33-5.15,2.6-1.46.12-4.07.38-5.81.73-4.53.91-8.46,5.82-8.36,10.67.11,4.97,4.67,5.35,9.65,5.22,3.8-.09,7.49-1.18,8.98-1.24,1.98-.07,3.43.85,3.43,1.97,0,1.19-.77,2.09-2.51,2.74-1.82.68-4.16,1.07-8.83,1.19-8.98.23-13.99-2.84-14.16-8.75-.17-5.78,2.59-10.16,8.53-13.95-1.31-1.24-2.01-2.44-2.01-4.81,0-2.56.45-9.2.45-11.51,0-1.19-.17-2.13-1.46-2.9-1.71-1.03-2.19-1.21-2.19-1.94h0Z"/>
    <path class="st3" d="M166.31,41.01c5,8.42,13.31,13.53,21.73,15.44,1.85.39,1.46,1.4.28,1.85-1.52.62-2.02,1.07-2.47,1.8-.73,1.12-1.24,1.52-2.7,1.07-6.79-2.53-13.87-8.87-18.31-18.14.06,6.29.23,19.82.23,21.84,0,1.29-.95,2.02-2.81,2.02-1.12,0-1.8-.62-1.8-1.68,0-2.13.34-13.48.45-20.1-4.38,6.79-12.41,14.04-22.35,17.8-1.74.73-2.47-.79-.95-1.8,8.82-5.05,15.89-11.68,20.67-20.1h-19.88c-.73,0-1.23-.22-1.23-1.12,0-.84.51-1.12,1.23-1.12h22.58c0-5.56,0-17.07-.73-21.68-.11-.51.23-.84.79-.84,3.76,0,6.85.34,6.85,1.74,0,.96-1.18,1.63-2.92,2.02-.11,3.37-.11,14.1-.11,18.76h14.32c1.29-1.85,2.92-4.04,3.82-4.04,1.18,0,5.45,3.54,5.45,4.94,0,.84-.95,1.35-3.26,1.35h-18.87ZM145.03,24.95c-.73-1.18-.06-2.36,1.57-1.74,3.82,1.46,8.09,5.05,7.97,8.59-.06,1.85-1.18,3.03-2.98,2.98-1.91-.06-2.58-1.91-3.71-4.44-.84-1.97-1.85-3.76-2.86-5.39ZM169.63,34.27c2.7-3.59,5.05-7.69,6.35-11.51.22-.56.45-.95,1.12-.79,2.13.67,5.95,2.86,5.95,3.93,0,.96-1.07,1.24-2.81,1.01-1.85,2.41-5.05,5.95-8.87,8.76-1.4,1.07-2.7,0-1.74-1.4Z"/>
  </g>
</svg>