<?xml version="1.0" encoding="UTF-8"?>
<svg id="_レイヤー_1" data-name="レイヤー_1" xmlns="http://www.w3.org/2000/svg" version="1.1" viewBox="0 0 640 512">
  <!-- Generator: Adobe Illustrator 29.7.1, SVG Export Plug-In . SVG Version: 2.1.1 Build 8)  -->
  <path d="M424.43,219.73c-8.31-85-80.29-151.73-167.51-151.73-72.27,0-136.22,46.52-159.21,114.07C43.17,190.1,1.08,236.9,1.08,293.66c0,62.3,50.67,112.97,113.24,112.97h289.61c52.33,0,94.97-42.36,94.97-94.69,0-45.13-32.12-83.06-74.48-92.2h0ZM403.94,364.26H114.33c-39.04,0-70.88-31.56-70.88-70.6s31.84-70.6,70.88-70.6c18.83,0,36.55,7.48,49.84,20.77,19.96,19.96,50.13-10.23,30.18-30.18-14.68-14.4-32.67-24.37-52.05-29.35,19.93-44.3,64.79-73.93,114.63-73.93,69.5,0,125.98,56.48,125.98,125.7,0,13.57-2.21,26.86-6.37,39.59-8.94,27.52,32.13,38.94,40.15,13.29,2.77-8.31,4.98-16.89,6.37-25.47,19.38,7.48,33.5,26.3,33.5,48.45,0,28.8-23.54,52.33-52.61,52.33h0ZM639.01,311.93c0,44.02-12.74,86.39-37.1,122.66-4.15,6.09-10.8,9.41-17.72,9.41-16.32,0-27.13-18.83-17.44-32.95,19.38-29.35,29.9-63.68,29.9-99.12s-10.52-69.77-29.9-98.85c-15.66-22.83,19.36-47.24,35.16-23.53,24.37,35.99,37.1,78.36,37.1,122.38h0ZM568.13,311.93c0,31.57-9.14,62.02-26.86,88.33-4.15,6.09-10.8,9.14-17.72,9.14-17.2,0-27.02-18.98-17.44-32.95,13.01-19.1,19.66-41.26,19.66-64.51s-6.65-45.41-19.66-64.51c-15.76-22.99,19.01-47.1,35.16-23.54,17.72,26.03,26.86,56.48,26.86,88.05h0Z"/>
</svg>