<?xml version="1.0" encoding="UTF-8"?>
<svg id="_レイヤー_1" data-name="レイヤー_1" xmlns="http://www.w3.org/2000/svg" version="1.1" xmlns:xlink="http://www.w3.org/1999/xlink" viewBox="0 0 181.42 181.42">
  <!-- Generator: Adobe Illustrator 29.7.1, SVG Export Plug-In . SVG Version: 2.1.1 Build 8)  -->
  <defs>
    <style>
      .st0 {
        fill: url(#_名称未設定グラデーション_46);
      }
    </style>
    <linearGradient id="_名称未設定グラデーション_46" data-name="名称未設定グラデーション 46" x1="90.97" y1="169.22" x2="90.97" y2="61.75" gradientUnits="userSpaceOnUse">
      <stop offset="0" stop-color="#75bc2d"/>
      <stop offset="1" stop-color="#208ece"/>
    </linearGradient>
  </defs>
  <path class="st0" d="M90.97.99C41.41.99,1.1,41.3,1.1,90.86s40.32,89.87,89.87,89.87,89.88-40.32,89.88-89.87S140.53.99,90.97.99ZM99.29,169.28c-1.39.15-2.79.26-4.2.33v-32.45h28.52c-5.8,16.01-14.45,27.79-24.32,32.12ZM58.33,137.17h28.52v32.45c-1.41-.07-2.81-.19-4.2-.33-9.87-4.32-18.51-16.11-24.32-32.12ZM12.2,94.98h30.29c.29,12.17,1.87,23.62,4.5,33.93h-25.08c-5.62-10.16-9.08-21.68-9.71-33.93ZM82.65,12.43c1.39-.15,2.79-.26,4.2-.33v32.45h-28.52c5.8-16,14.45-27.79,24.32-32.12ZM123.61,44.55h-28.52V12.1c1.41.07,2.81.19,4.2.33,9.87,4.32,18.51,16.11,24.32,32.12ZM126.25,52.8c2.85,10.25,4.61,21.78,4.94,33.93h-36.1v-33.93h31.16ZM86.85,52.8v33.93h-36.1c.33-12.15,2.09-23.69,4.94-33.93h31.16ZM42.49,86.73H12.2c.63-12.26,4.09-23.77,9.71-33.93h25.08c-2.63,10.31-4.21,21.77-4.5,33.93ZM50.75,94.98h36.1v33.93h-31.16c-2.85-10.25-4.61-21.78-4.94-33.93ZM95.1,128.92v-33.93h36.1c-.33,12.15-2.09,23.69-4.94,33.93h-31.16ZM139.45,94.98h30.29c-.63,12.26-4.09,23.77-9.71,33.93h-25.08c2.63-10.31,4.21-21.77,4.5-33.93ZM139.45,86.73c-.29-12.17-1.87-23.62-4.5-33.93h25.08c5.62,10.16,9.08,21.68,9.71,33.93h-30.29ZM154.76,44.55h-22.22c-3.71-11.21-8.75-20.72-14.75-27.86,14.94,5.42,27.78,15.23,36.97,27.86ZM64.15,16.69c-6,7.14-11.04,16.65-14.75,27.86h-22.22c9.2-12.63,22.03-22.44,36.97-27.86ZM27.18,137.17h22.22c3.71,11.21,8.75,20.72,14.75,27.86-14.94-5.42-27.78-15.23-36.97-27.86ZM117.79,165.03c6-7.14,11.04-16.65,14.75-27.86h22.22c-9.2,12.63-22.04,22.44-36.97,27.86Z"/>
</svg>